<?xml version="1.0" encoding="utf-8" ?>
<svg baseProfile="full" height="100%" version="1.1" width="100%" xmlns="http://www.w3.org/2000/svg" xmlns:ev="http://www.w3.org/2001/xml-events" xmlns:xlink="http://www.w3.org/1999/xlink"><defs /><path d="M 1.184e+03 141.4 l -4.726 4.478 l -4.865 4.338 l -5.004 4.198 l -5.141 4.057 l -5.277 3.916 l -5.412 3.776 l -5.546 3.635 l -5.678 3.495 l -5.809 3.356 l -5.938 3.217 l -6.066 3.079 l -6.191 2.942 l -6.315 2.805 l -6.436 2.67 l -6.555 2.537 l -6.671 2.404 l -6.785 2.274 l -6.896 2.145 l -7.005 2.017 l -7.11 1.892 l -7.213 1.769 l -7.313 1.648 l -7.409 1.529 l -7.502 1.413 l -7.592 1.3 l -7.678 1.188 l -7.761 1.08 l -7.84 0.9749 l -7.916 0.8725 l -7.988 0.7731 l -8.055 0.677 l -8.119 0.5841 l -8.18 0.4946 l -8.236 0.4085 l -8.288 0.326 l -8.335 0.2471 l -8.379 0.1719 l -8.418 0.1004 l -8.454 0.03285 l -8.484 -0.03084 l -8.511 -0.09056 l -8.533 -0.1463 l -8.551 -0.1979 l -8.564 -0.2453 l -8.573 -0.2886 l -8.578 -0.3277 l -8.578 -0.3625 l -8.574 -0.393 l -8.565 -0.4192 l -8.552 -0.441 l -8.535 -0.4584 l -8.513 -0.4715 l -8.487 -0.4801 l -8.456 -0.4844 l -8.421 -0.4842 l -8.382 -0.4796 l -8.339 -0.4706 l -8.292 -0.4571 l -8.24 -0.4393 l -8.184 -0.4171 l -8.125 -0.3906 l -8.061 -0.3597 l -7.993 -0.3246 l -7.922 -0.2852 l -7.847 -0.2415 l -7.768 -0.1937 l -7.685 -0.1418 l -7.599 -0.08574 l -7.51 -0.02568 l -7.417 0.03833 l -7.321 0.1063 l -7.221 0.178 l -7.119 0.2535 l -7.014 0.3327 l -6.905 0.4156 l -6.794 0.5019 l -6.681 0.5917 l -6.564 0.6849 l -6.446 0.7813 l -6.325 0.8809 l -6.202 0.9835 l -6.076 1.089 l -5.949 1.198 l -5.82 1.309 l -5.689 1.423 l -5.557 1.539 l -5.423 1.658 l -5.288 1.779 l -5.152 1.903 l -5.015 2.028 l -4.877 2.155 l -4.738 2.284 l -4.598 2.415 l -4.458 2.548 l -4.318 2.682 l -4.178 2.817 l -4.037 2.953 l -3.896 3.09 l -3.756 3.228 l -3.616 3.367 l -3.476 3.507 l -3.337 3.647 l -3.199 3.787 l -3.062 3.928 l -2.926 4.069 l -2.79 4.209 l -2.657 4.35 l -2.524 4.49 l -2.393 4.629 l -2.264 4.768 l -2.137 4.906 l -2.011 5.043 l -1.888 5.18 l -1.767 5.315 l -1.648 5.448 l -1.532 5.581 l -1.418 5.711 l -1.307 5.84 l -1.198 5.967 l -1.092 6.093 l -0.9898 6.216 l -0.8902 6.337 l -0.7938 6.455 l -0.7006 6.572 l -0.6108 6.685 l -0.5245 6.796 l -0.4416 6.905 l -0.3624 7.01 l -0.2869 7.112 l -0.2151 7.212 l -0.1472 7.308 l -0.08321 7.401 l -0.02316 7.49 l 0.03287 7.576 l 0.08482 7.659 l 0.1326 7.738 l 0.1763 7.813 l 0.2157 7.884 l 0.2509 7.952 l 0.2817 8.016 l 0.3082 8.075 l 0.3304 8.131 l 0.3482 8.183 l 0.3617 8.23 l 0.3707 8.274 l 0.3753 8.313 l 0.3755 8.347 l 0.3712 8.378 l 0.3626 8.404 l 0.3495 8.426 l 0.3321 8.443 l 0.3103 8.456 l 0.2841 8.465 l 0.2536 8.469 l 0.2188 8.469 l 0.1797 8.464 l 0.1364 8.455 l 0.08896 8.442 l 0.03736 8.424 l -0.01833 8.402 l -0.07805 8.376 l -0.1417 8.345 l -0.2093 8.309 l -0.2808 8.27 l -0.356 8.226 l -0.4349 8.179 l -0.5174 8.127 l -0.6035 8.071 l -0.693 8.011 l -0.7859 7.947 l -0.882 7.879 l -0.9813 7.807 l -1.084 7.731 l -1.189 7.652 l -1.297 7.569 l -1.408 7.483 l -1.522 7.393 l -1.638 7.3 l -1.757 7.204 l -1.878 7.104 l -2.001 7.001 l -2.126 6.896 l -2.254 6.787 l -2.383 6.676 l -2.513 6.562 l -2.646 6.446 l -2.779 6.327 l -2.914 6.206 l -3.05 6.082 l -3.188 5.957 l -3.326 5.83 l -3.465 5.7 l -3.604 5.57 l -3.744 5.437 l -3.885 5.303 l -4.025 5.168 l -4.166 5.032 l -4.306 4.895 l -4.447 4.756 l -4.587 4.618 l -2.091 2.533 l -2.23 2.392 l -2.369 2.252 l -2.506 2.112 l -2.642 1.971 l -2.777 1.83 l -2.911 1.69 l -3.043 1.55 l -3.174 1.41 l -3.303 1.271 l -3.431 1.133 l -3.556 0.9961 l -3.68 0.86 l -3.801 0.7249 l -3.92 0.5912 l -4.036 0.459 l -4.15 0.3282 l -4.261 0.1992 l -4.37 0.07205 l -4.475 -0.05319 l -4.578 -0.1764 l -4.678 -0.2973 l -4.774 -0.416 l -4.867 -0.5322 l -4.957 -0.6459 l -5.043 -0.7569 l -5.126 -0.8652 l -5.205 -0.9706 l -5.281 -1.073 l -5.353 -1.172 l -5.42 -1.268 l -5.484 -1.361 l -5.545 -1.451 l -5.601 -1.537 l -5.653 -1.619 l -5.7 -1.698 l -5.744 -1.774 l -5.783 -1.845 l -5.819 -1.913 l -5.849 -1.976 l -5.876 -2.036 l -5.898 -2.092 l -5.916 -2.143 l -5.929 -2.191 l -5.938 -2.234 l -5.943 -2.273 l -5.943 -2.308 l -5.939 -2.338 l -5.93 -2.365 l -5.917 -2.386 l -5.9 -2.404 l -5.878 -2.417 l -5.852 -2.426 l -5.821 -2.43 l -5.786 -2.43 l -5.747 -2.425 l -5.704 -2.416 l -5.657 -2.403 l -5.605 -2.385 l -5.549 -2.363 l -5.49 -2.336 l -5.426 -2.305 l -5.358 -2.27 l -5.287 -2.231 l -5.212 -2.187 l -5.133 -2.139 l -5.05 -2.087 l -4.964 -2.031 l -4.875 -1.971 l -4.782 -1.907 l -4.686 -1.839 l -4.586 -1.767 l -4.484 -1.692 l -4.379 -1.613 l -4.27 -1.53 l -4.159 -1.443 l -4.046 -1.354 l -3.929 -1.261 l -3.811 -1.164 l -3.69 -1.065 l -3.567 -0.9619 l -3.441 -0.8563 l -3.314 -0.7478 l -3.185 -0.6365 l -3.054 -0.5226 l -2.922 -0.4062 l -2.788 -0.2873 l -2.653 -0.1662 l -2.517 -0.04283 l -2.38 0.08258 l -2.242 0.2099 l -2.103 0.3391 l -1.963 0.4699 l -1.823 0.6023 l -1.683 0.7361 l -1.543 0.8713 l -1.402 1.008 l -1.261 1.145 l -1.121 1.283 l -0.9809 1.422 l -0.1299 2.346 l 0.009061 2.486 l 0.1473 2.626 l 0.2846 2.767 l 0.4208 2.907 l 0.556 3.048 l 0.6898 3.188 l 0.8222 3.328 l 0.953 3.468 l 1.082 3.607 l 1.21 3.745 l 1.335 3.882 l 1.458 4.018 l 1.579 4.153 l 1.698 4.287 l 1.815 4.419 l 1.929 4.55 l 2.04 4.679 l 2.148 4.806 l 2.254 4.931 l 2.357 5.054 l 2.456 5.175 l 2.553 5.294 l 2.646 5.41 l 2.736 5.524 l 2.822 5.635 l 2.905 5.743 l 2.984 5.849 l 3.059 5.951 l 3.131 6.05 l 3.199 6.146 l 3.263 6.239 l 3.323 6.329 l 3.379 6.415 l 3.431 6.497 l 3.479 6.576 l 3.523 6.652 l 3.562 6.723 l 3.597 6.791 l 3.628 6.854 l 3.655 6.914 l 3.677 6.97 l 3.695 7.021 l 3.708 7.069 l 3.717 7.112 l 3.722 7.151 l 3.722 7.186 l 3.718 7.216 l 3.709 7.243 l 3.696 7.264 l 3.678 7.282 l 3.657 7.295 l 3.63 7.304 l 3.6 7.308 l 3.565 7.308 l 3.526 7.303 l 3.483 7.294 l 3.435 7.281 l 3.384 7.263 l 3.328 7.241 l 3.268 7.214 l 3.205 7.183 l 3.137 7.148 l 3.066 7.109 l 2.99 7.065 l 2.912 7.017 l 2.829 6.965 l 2.743 6.909 l 2.653 6.849 l 2.561 6.785 l 2.464 6.717 l 2.365 6.645 l 2.263 6.57 l 2.157 6.491 l 2.049 6.408 l 1.938 6.322 l 1.824 6.232 l 1.708 6.139 l 1.589 6.042 l 1.468 5.943 l 1.345 5.84 l 1.22 5.734 l 1.093 5.626 l 0.9639 5.515 l 0.8331 5.401 l 0.7009 5.284 l 0.5672 5.165 l 0.4321 5.044 l 0.296 4.921 l 0.1587 4.795 l 0.02061 4.668 l -0.1183 4.539 l -0.2578 4.408 l -0.3978 4.276 l -0.5382 4.142 l -0.6788 4.007 l -0.8194 3.871 l -0.96 3.733 l -1.1 3.595 l -1.24 3.456 l -0.596 2.562 l -0.7349 2.422 l -0.8731 2.281 l -1.01 2.141 l -1.147 2.0 l -1.282 1.859 l -1.416 1.719 l -1.548 1.579 l -1.679 1.439 l -1.808 1.301 l -1.935 1.162 l -2.061 1.025 l -2.184 0.889 l -2.305 0.754 l -2.424 0.6203 l -2.541 0.488 l -2.654 0.3573 l -2.766 0.2283 l -2.874 0.1011 l -2.98 -0.02416 l -3.083 -0.1473 l -3.182 -0.2683 l -3.279 -0.387 l -3.372 -0.5032 l -3.461 -0.6169 l -3.548 -0.7279 l -3.631 -0.8361 l -3.71 -0.9415 l -3.785 -1.044 l -3.857 -1.143 l -3.925 -1.239 l -3.989 -1.332 l -4.049 -1.422 l -4.105 -1.508 l -4.157 -1.59 l -4.205 -1.669 l -4.249 -1.744 l -4.288 -1.816 l -4.323 -1.884 l -4.354 -1.947 l -4.381 -2.007 l -4.403 -2.063 l -4.421 -2.114 l -4.434 -2.162 l -4.443 -2.205 l -4.448 -2.244 l -4.448 -2.279 l -4.443 -2.309 l -4.435 -2.336 l -4.422 -2.357 l -4.404 -2.375 l -4.383 -2.388 l -4.356 -2.397 l -4.326 -2.401 l -4.291 -2.401 l -4.252 -2.396 l -4.209 -2.387 l -4.161 -2.374 l -4.11 -2.356 l -4.054 -2.334 l -3.994 -2.307 l -3.931 -2.276 l -3.863 -2.241 l -3.791 -2.202 l -3.716 -2.158 l -3.637 -2.11 l -3.555 -2.058 l -3.469 -2.002 l -3.379 -1.942 l -3.286 -1.878 l -3.19 -1.81 l -3.091 -1.738 l -2.989 -1.663 l -2.883 -1.584 l -2.775 -1.501 l -2.664 -1.414 l -2.55 -1.325 l -2.434 -1.232 l -2.315 -1.135 l -2.194 -1.036 l -2.071 -0.9329 l -1.946 -0.8272 l -1.819 -0.7187 l -1.69 -0.6075 l -1.559 -0.4936 l -1.427 -0.3772 l -1.293 -0.2583 l -1.158 -0.1371 l -1.022 -0.0138 l -0.8846 0.1116 l -0.7465 0.2389 l -0.6076 0.3681 l -0.4681 0.4989 l -0.328 0.6313 l -0.1877 0.7652 l -0.0471 0.9003 l 0.09355 1.037 l 0.2341 1.174 l 0.3745 1.312 l 0.5146 1.451 l 1.365 1.983 l 1.504 2.123 l 1.643 2.263 l 1.78 2.404 l 1.916 2.544 l 2.051 2.685 l 2.185 2.825 l 2.318 2.965 l 2.448 3.105 l 2.578 3.244 l 2.705 3.382 l 2.83 3.519 l 2.954 3.655 l 3.075 3.79 l 3.194 3.924 l 3.31 4.056 l 3.424 4.187 l 3.535 4.316 l 3.644 4.443 l 3.749 4.568 l 3.852 4.691 l 3.952 4.812 l 4.048 4.931 l 4.141 5.047 l 4.231 5.161 l 4.317 5.272 l 4.4 5.38 l 4.479 5.486 l 4.555 5.588 l 4.627 5.687 l 4.695 5.784 l 4.759 5.876 l 4.819 5.966 l 4.875 6.052 l 4.927 6.135 l 4.974 6.213 l 5.018 6.289 l 5.057 6.36 l 5.093 6.428 l 5.123 6.491 l 5.15 6.551 l 5.172 6.607 l 5.19 6.658 l 5.203 6.706 l 5.212 6.749 l 5.217 6.788 l 5.217 6.823 l 5.213 6.853 l 5.204 6.88 l 5.191 6.901 l 5.174 6.919 l 5.152 6.932 l 5.126 6.941 l 5.095 6.945 l 5.061 6.945 l 5.021 6.94 l 4.978 6.931 l 4.931 6.918 l 4.879 6.9 l 4.823 6.878 l 4.764 6.851 l 4.7 6.82 l 4.632 6.785 l 4.561 6.746 l 4.486 6.702 l 4.407 6.654 l 4.324 6.602 l 4.238 6.546 l 4.149 6.486 l 4.056 6.422 l 3.96 6.354 l 3.86 6.282 l 3.758 6.207 l 3.653 6.128 l 3.544 6.045 l 3.433 5.959 l 3.32 5.869 l 3.203 5.776 l 3.085 5.679 l 2.964 5.58 l 2.841 5.477 l 2.715 5.371 l 2.588 5.263 l 2.459 5.152 l 2.328 5.038 l 2.196 4.921 l 2.062 4.802 l 1.927 4.681 l 1.791 4.558 l 1.654 4.433 l 1.516 4.305 l 1.377 4.176 l 1.238 4.045 l 1.098 3.913 l 0.9572 3.779 l 0.8166 3.644 l 0.6759 3.508 l 0.5353 3.37 l 0.395 3.232 l 0.2549 3.093 l 1.001 2.358 l 0.862 2.218 l 0.7238 2.078 l 0.5865 1.937 l 0.4502 1.797 l 0.3151 1.656 l 0.1813 1.516 l 0.04889 1.376 l -0.08195 1.236 l -0.2111 1.097 l -0.3385 0.9592 l -0.4639 0.8219 l -0.5872 0.6857 l -0.7084 0.5507 l -0.8272 0.417 l -0.9437 0.2847 l -1.058 0.154 l -1.169 0.02503 l -1.277 -0.1022 l -1.383 -0.2274 l -1.486 -0.3506 l -1.585 -0.4715 l -1.682 -0.5902 l -1.775 -0.7064 l -1.865 -0.8201 l -1.951 -0.9311 l -2.034 -1.039 l -2.113 -1.145 l -2.188 -1.247 l -2.26 -1.346 l -2.328 -1.443 l -2.392 -1.536 l -2.452 -1.625 l -2.508 -1.711 l -2.56 -1.794 l -2.608 -1.873 l -2.652 -1.948 l -2.691 -2.019 l -2.726 -2.087 l -2.757 -2.15 l -2.784 -2.21 l -2.806 -2.266 l -2.824 -2.317 l -2.837 -2.365 l -2.846 -2.408 l -2.851 -2.447 l -2.851 -2.482 l -2.847 -2.513 l -2.838 -2.539 l -2.825 -2.561 l -2.807 -2.578 l -2.786 -2.591 l -2.759 -2.6 l -2.729 -2.604 l -2.694 -2.604 l -2.655 -2.599 l -2.612 -2.59 l -2.564 -2.577 l -2.513 -2.559 l -2.457 -2.537 l -2.397 -2.51 l -2.334 -2.479 l -2.266 -2.444 l -2.195 -2.405 l -2.119 -2.361 l -2.04 -2.313 l -1.958 -2.261 l -1.872 -2.205 l -1.782 -2.145 l -1.689 -2.081 l -1.593 -2.013 l -1.494 -1.942 l -1.392 -1.866 l -1.286 -1.787 l -1.178 -1.704 l -1.067 -1.618 l -0.9532 -1.528 l -0.837 -1.435 l -0.7184 -1.338 l -0.5974 -1.239 l -0.4742 -1.136 l -0.349 -1.03 l -0.2218 -0.922 l -0.09278 -0.8107 l 0.03793 -0.6968 l 0.1702 -0.5804 l 0.3039 -0.4615 l 0.4389 -0.3404 l 0.5751 -0.217 l 0.7123 -0.09163 l 0.8505 0.03571 l 0.9894 0.1649 l 1.129 0.2957 l 1.269 0.4281 l 1.409 0.5619 l 1.55 0.6971 l 1.69 0.8333 l 1.831 0.9706 l 1.971 1.109 l 2.111 1.248 l 1.946 0.313 l 2.085 0.453 l 2.223 0.5934 l 2.361 0.734 l 2.497 0.8747 l 2.632 1.015 l 2.766 1.156 l 2.898 1.296 l 3.029 1.435 l 3.158 1.574 l 3.286 1.712 l 3.411 1.849 l 3.534 1.986 l 3.655 2.121 l 3.774 2.254 l 3.891 2.387 l 4.005 2.517 l 4.116 2.646 l 4.224 2.773 l 4.33 2.899 l 4.433 3.022 l 4.532 3.143 l 4.629 3.262 l 4.722 3.378 l 4.812 3.491 l 4.898 3.602 l 4.981 3.711 l 5.06 3.816 l 5.136 3.918 l 5.207 4.018 l 5.275 4.114 l 5.339 4.207 l 5.399 4.296 l 5.455 4.382 l 5.507 4.465 l 5.555 4.544 l 5.599 4.619 l 5.638 4.69 l 5.673 4.758 l 5.704 4.822 l 5.731 4.882 l 5.753 4.937 l 5.771 4.989 l 5.784 5.036 l 5.793 5.08 l 5.798 5.119 l 5.798 5.153 l 5.794 5.184 l 5.785 5.21 l 5.772 5.232 l 5.755 5.249 l 5.733 5.262 l 5.707 5.271 l 5.676 5.275 l 5.641 5.275 l 5.602 5.271 l 5.559 5.261 l 5.511 5.248 l 5.46 5.23 l 5.404 5.208 l 5.344 5.182 l 5.281 5.151 l 5.213 5.116 l 5.142 5.076 l 5.066 5.032 l 4.988 4.985 l 4.905 4.933 l 4.819 4.877 l 4.729 4.817 l 4.637 4.753 l 4.54 4.685 l 4.441 4.613 l 4.339 4.537 l 4.233 4.458 l 4.125 4.375 l 4.014 4.289 l 3.9 4.199 l 3.784 4.106 l 3.665 4.01 l 3.545 3.91 l 3.421 3.807 l 3.296 3.702 l 3.169 3.593 l 3.04 3.482 l 2.909 3.368 l 2.777 3.252 l 2.643 3.133 l 2.508 3.012 l 2.372 2.888 l 2.235 2.763 l 2.097 2.636 l 1.958 2.506 l 1.818 2.376 l 1.678 2.243 l 1.538 2.109 l 1.397 1.974 l 1.257 1.838 l 1.116 1.701 l 0.9757 1.562 l 0.8356 1.424 l 1.074 0.8629 l 0.9346 0.7229 l 0.7964 0.5825 l 0.6591 0.4419 l 0.5229 0.3013 l 0.3877 0.1607 l 0.2539 0.02034 l 0.1215 -0.1197 l -0.009334 -0.2592 l -0.1385 -0.3981 l -0.2658 -0.5362 l -0.3912 -0.6734 l -0.5146 -0.8096 l -0.6357 -0.9446 l -0.7546 -1.078 l -0.871 -1.211 l -0.9849 -1.341 l -1.096 -1.47 l -1.205 -1.598 l -1.31 -1.723 l -1.413 -1.846 l -1.513 -1.967 l -1.609 -2.086 l -1.702 -2.202 l -1.792 -2.315 l -1.878 -2.426 l -1.961 -2.535 l -2.04 -2.64 l -2.116 -2.743 l -2.188 -2.842 l -2.255 -2.938 l -2.32 -3.031 l -2.38 -3.12 l -2.436 -3.206 l -2.488 -3.289 l -2.535 -3.368 l -2.579 -3.443 l -2.618 -3.515 l -2.654 -3.582 l -2.684 -3.646 l -2.711 -3.706 l -2.733 -3.761 l -2.751 -3.813 l -2.764 -3.86 l -2.773 -3.904 l -2.778 -3.943 l -2.778 -3.977 l -2.774 -4.008 l -2.765 -4.034 l -2.752 -4.056 l -2.735 -4.073 l -2.713 -4.086 l -2.687 -4.095 l -2.656 -4.099 l -2.622 -4.099 l -2.582 -4.095 l -2.539 -4.086 l -2.492 -4.072 l -2.44 -4.054 l -2.384 -4.032 l -2.325 -4.006 l -2.261 -3.975 l -2.193 -3.94 l -2.122 -3.9 l -2.047 -3.857 l -1.968 -3.809 l -1.885 -3.757 l -1.799 -3.701 l -1.71 -3.641 l -1.617 -3.577 l -1.521 -3.509 l -1.421 -3.437 l -1.319 -3.361 l -1.214 -3.282 l -1.105 -3.199 l -0.9943 -3.113 l -0.8806 -3.023 l -0.7644 -2.93 l -0.6457 -2.834 l -0.5248 -2.734 l -0.4016 -2.631 l -0.2764 -2.526 l -0.1492 -2.417 l -0.02016 -2.306 l 0.1105 -2.192 l 0.2428 -2.076 l 0.3765 -1.957 l 0.5115 -1.836 l 0.6477 -1.712 l 0.785 -1.587 l 0.9231 -1.46 l 1.062 -1.331 l 1.201 -1.2 l 1.342 -1.067 l 1.482 -0.9334 l 1.622 -0.7983 l 1.763 -0.662 l 1.904 -0.5247 l 2.044 -0.3865 l 2.184 -0.2476 l 2.28 -0.8049 l 2.419 -0.6648 l 2.557 -0.5244 l 2.695 -0.3839 l 2.831 -0.2432 l 2.966 -0.1026 l 3.1 0.03773 l 3.232 0.1777 l 3.363 0.3173 l 3.492 0.4562 l 3.62 0.5943 l 3.745 0.7315 l 3.868 0.8677 l 3.989 1.003 l 4.108 1.136 l 4.225 1.269 l 4.339 1.399 l 4.45 1.528 l 4.558 1.656 l 4.664 1.781 l 4.767 1.904 l 4.866 2.025 l 4.963 2.144 l 5.056 2.26 l 5.146 2.374 l 5.232 2.485 l 5.315 2.593 l 5.394 2.698 l 5.469 2.801 l 5.541 2.9 l 5.609 2.996 l 5.673 3.089 l 5.733 3.178 l 5.789 3.265 l 5.841 3.347 l 5.889 3.426 l 5.933 3.501 l 5.972 3.573 l 6.007 3.64 l 6.038 3.704 l 6.065 3.764 l 6.087 3.819 l 6.105 3.871 l 6.118 3.918 l 6.127 3.962 l 6.132 4.001 l 6.132 4.036 l 6.128 4.066 l 6.119 4.092 l 6.106 4.114 l 6.088 4.131 l 6.067 4.145 l 6.04 4.153 l 6.01 4.157 l 5.975 4.157 l 5.936 4.153 l 5.893 4.144 l 5.845 4.13 l 5.794 4.112 l 5.738 4.09 l 5.678 4.064 l 5.615 4.033 l 5.547 3.998 l 5.476 3.958 l 5.4 3.915 l 5.321 3.867 l 5.239 3.815 l 5.153 3.759 l 5.063 3.699 l 4.971 3.635 l 4.874 3.567 l 4.775 3.495 l 4.673 3.42 l 4.567 3.34 l 4.459 3.257 l 4.348 3.171 l 4.234 3.081 l 4.118 2.988 l 3.999 2.892 l 3.878 2.792 l 3.755 2.69 l 3.63 2.584 l 3.503 2.475 l 3.374 2.364 l 3.243 2.25 l 3.111 2.134 l 2.977 2.015 l 2.842 1.894 l 2.706 1.77 l 2.569 1.645 l 2.431 1.518 l 2.292 1.389 l 2.152 1.258 l 2.012 1.125 l 1.872 0.9915 l 1.731 0.8564 l 1.591 0.7201 l 1.45 0.5828 l 1.31 0.4446 l 1.17 0.3057 l 0.5364 -0.3711 l 0.3974 -0.5111 l 0.2592 -0.6515 l 0.1219 -0.7921 l -0.01434 -0.9327 l -0.1495 -1.073 l -0.2833 -1.214 l -0.4157 -1.354 l -0.5465 -1.493 l -0.6757 -1.632 l -0.803 -1.77 l -0.9284 -1.907 l -1.052 -2.044 l -1.173 -2.179 l -1.292 -2.312 l -1.408 -2.445 l -1.522 -2.575 l -1.633 -2.704 l -1.742 -2.832 l -1.847 -2.957 l -1.95 -3.08 l -2.05 -3.201 l -2.146 -3.32 l -2.239 -3.436 l -2.329 -3.549 l -2.415 -3.661 l -2.498 -3.769 l -2.577 -3.874 l -2.653 -3.977 l -2.725 -4.076 l -2.793 -4.172 l -2.857 -4.265 l -2.917 -4.354 l -2.973 -4.44 l -3.025 -4.523 l -3.073 -4.602 l -3.116 -4.677 l -3.156 -4.749 l -3.191 -4.816 l -3.222 -4.88 l -3.248 -4.94 l -3.27 -4.995 l -3.288 -5.047 l -3.302 -5.094 l -3.311 -5.138 l -3.315 -5.177 l -3.315 -5.211 l -3.311 -5.242 l -3.302 -5.268 l -3.289 -5.29 l -3.272 -5.307 l -3.25 -5.32 l -3.224 -5.329 l -3.193 -5.333 l -3.159 -5.333 l -3.12 -5.329 l -3.076 -5.32 l -3.029 -5.306 l -2.977 -5.288 l -2.922 -5.266 l -2.862 -5.24 l -2.798 -5.209 l -2.731 -5.174 l -2.659 -5.134 l -2.584 -5.091 l -2.505 -5.043 l -2.422 -4.991 l -2.336 -4.935 l -2.247 -4.875 l -2.154 -4.811 l -2.058 -4.743 l -1.959 -4.671 l -1.856 -4.595 l -1.751 -4.516 l -1.643 -4.433 l -1.531 -4.347 l -1.418 -4.257 l -1.302 -4.164 l -1.183 -4.068 l -1.062 -3.968 l -0.9388 -3.865 l -0.8135 -3.76 l -0.6864 -3.651 l -0.5574 -3.54 l -0.4266 -3.426 l -0.2944 -3.31 l -0.1607 -3.191 l -0.02564 -3.07 l 0.1105 -2.946 l 0.2478 -2.821 l 0.3859 -2.694 l 0.5248 -2.565 l 0.6643 -2.434 l 0.8043 -2.301 l 0.9447 -2.167 l 1.085 -2.032 l 1.226 -1.896 l 1.366 -1.759 l 1.507 -1.621 l 1.647 -1.482 l 1.438 -0.9501 l 1.577 -0.81 l 1.715 -0.6696 l 1.853 -0.529 l 1.989 -0.3884 l 2.124 -0.2478 l 2.258 -0.1075 l 2.39 0.03255 l 2.521 0.1721 l 2.65 0.311 l 2.777 0.4491 l 2.903 0.5863 l 3.026 0.7225 l 3.147 0.8575 l 3.266 0.9912 l 3.383 1.124 l 3.497 1.254 l 3.608 1.383 l 3.716 1.51 l 3.822 1.636 l 3.925 1.759 l 4.024 1.88 l 4.121 1.998 l 4.214 2.115 l 4.304 2.228 l 4.39 2.339 l 4.473 2.448 l 4.552 2.553 l 4.627 2.655 l 4.699 2.755 l 4.767 2.851 l 4.831 2.944 l 4.891 3.033 l 4.947 3.119 l 4.999 3.202 l 5.047 3.281 l 5.091 3.356 l 5.13 3.427 l 5.165 3.495 l 5.196 3.559 l 5.223 3.618 l 5.245 3.674 l 5.263 3.726 l 5.276 3.773 l 5.285 3.816 l 5.29 3.856 l 5.29 3.89 l 5.286 3.921 l 5.277 3.947 l 5.264 3.969 l 5.246 3.986 l 5.225 3.999 l 5.198 4.008 l 5.168 4.012 l 5.133 4.012 l 5.094 4.007 l 5.051 3.998 l 5.003 3.985 l 4.952 3.967 l 4.896 3.945 l 4.836 3.918 l 4.773 3.888 l 4.705 3.852 l 4.634 3.813 l 4.558 3.769 l 4.479 3.722 l 4.397 3.67 l 4.311 3.614 l 4.221 3.554 l 4.128 3.49 l 4.032 3.422 l 3.933 3.35 l 3.831 3.274 l 3.725 3.195 l 3.617 3.112 l 3.506 3.026 l 3.392 2.936 l 3.276 2.843 l 3.157 2.747 l 3.036 2.647 l 2.913 2.544 l 2.788 2.439 l 2.661 2.33 l 2.532 2.219 l 2.401 2.105 l 2.269 1.989 l 2.135 1.87 l 2.0 1.749 l 1.864 1.625 l 1.727 1.5 l 1.589 1.373 l 1.45 1.243 l 1.31 1.113 l 1.17 0.9801 l 1.03 0.8463 l 0.8892 0.7112 l 0.7485 0.5749 l 0.608 0.4376 l 0.4676 0.2994 l 0.3275 0.1605 l 0.7542 0.3839 l 0.6152 0.2438 l 0.477 0.1034 l 0.3397 -0.03716 l 0.2035 -0.1778 l 0.06833 -0.3184 l -0.06549 -0.4588 l -0.1979 -0.5988 l -0.3287 -0.7383 l -0.4579 -0.8772 l -0.5852 -1.015 l -0.7106 -1.153 l -0.834 -1.289 l -0.9551 -1.424 l -1.074 -1.557 l -1.19 -1.69 l -1.304 -1.82 l -1.416 -1.949 l -1.524 -2.077 l -1.63 -2.202 l -1.732 -2.325 l -1.832 -2.446 l -1.928 -2.565 l -2.022 -2.681 l -2.111 -2.795 l -2.198 -2.906 l -2.28 -3.014 l -2.36 -3.119 l -2.435 -3.222 l -2.507 -3.321 l -2.575 -3.417 l -2.639 -3.51 l -2.699 -3.599 l -2.755 -3.686 l -2.807 -3.768 l -2.855 -3.847 l -2.898 -3.922 l -2.938 -3.994 l -2.973 -4.061 l -3.004 -4.125 l -3.03 -4.185 l -3.053 -4.24 l -3.07 -4.292 l -3.084 -4.339 l -3.093 -4.383 l -3.097 -4.422 l -3.098 -4.457 l -3.093 -4.487 l -3.085 -4.513 l -3.072 -4.535 l -3.054 -4.553 l -3.032 -4.566 l -3.006 -4.574 l -2.976 -4.578 l -2.941 -4.578 l -2.902 -4.574 l -2.859 -4.565 l -2.811 -4.551 l -2.759 -4.533 l -2.704 -4.511 l -2.644 -4.485 l -2.58 -4.454 l -2.513 -4.419 l -2.441 -4.379 l -2.366 -4.336 l -2.287 -4.288 l -2.205 -4.236 l -2.119 -4.18 l -2.029 -4.12 l -1.936 -4.056 l -1.84 -3.988 l -1.741 -3.916 l -1.638 -3.841 l -1.533 -3.761 l -1.425 -3.679 l -1.314 -3.592 l -1.2 -3.502 l -1.084 -3.409 l -0.9651 -3.313 l -0.8442 -3.213 l -0.721 -3.111 l -0.5958 -3.005 l -0.4686 -2.896 l -0.3396 -2.785 l -0.2089 -2.671 l -0.07658 -2.555 l 0.05713 -2.436 l 0.1921 -2.315 l 0.3283 -2.191 l 0.4656 -2.066 l 0.6037 -1.939 l 0.7426 -1.81 l 0.8821 -1.679 l 1.022 -1.546 l 1.162 -1.413 l 1.303 -1.277 l 1.444 -1.141 l 1.584 -1.004 l 1.725 -0.8656 l 1.865 -0.7267 l 2.004 -0.3839 l 2.143 -0.2438 l 2.281 -0.1034 l 2.419 0.03716 l 2.555 0.1778 l 2.69 0.3184 l 2.824 0.4588 l 2.956 0.5988 l 3.087 0.7383 l 3.216 0.8772 l 3.344 1.015 l 3.469 1.153 l 3.592 1.289 l 3.714 1.424 l 3.832 1.557 l 3.949 1.69 l 4.063 1.82 l 4.174 1.949 l 4.282 2.077 l 4.388 2.202 l 4.491 2.325 l 4.59 2.446 l 4.687 2.565 l 4.78 2.681 l 4.87 2.795 l 4.956 2.906 l 5.039 3.014 l 5.118 3.119 l 5.194 3.222 l 5.265 3.321 l 5.333 3.417 l 5.397 3.51 l 5.457 3.599 l 5.513 3.686 l 5.565 3.768 l 5.613 3.847 l 5.657 3.922 l 5.696 3.994 l 5.731 4.061 l 5.762 4.125 l 5.789 4.185 l 5.811 4.24 l 5.829 4.292 l 5.842 4.339 l 5.851 4.383 l 5.856 4.422 l 5.856 4.457 l 5.852 4.487 l 5.843 4.513 l 5.83 4.535 l 5.813 4.553 l 5.791 4.566 l 5.765 4.574 l 5.734 4.578 l 5.699 4.578 l 5.66 4.574 l 5.617 4.565 l 5.569 4.551 l 5.518 4.533 l 5.462 4.511 l 5.402 4.485 l 5.339 4.454 l 5.271 4.419 l 5.2 4.379 l 5.125 4.336 l 5.046 4.288 l 4.963 4.236 l 4.877 4.18 l 4.788 4.12 l 4.695 4.056 l 4.599 3.988 l 4.499 3.916 l 4.397 3.841 l 4.291 3.761 l 4.183 3.679 l 4.072 3.592 l 3.958 3.502 l 3.842 3.409 l 3.724 3.313 l 3.603 3.213 l 3.479 3.111 l 3.354 3.005 l 3.227 2.896 l 3.098 2.785 l 2.967 2.671 l 2.835 2.555 l 2.701 2.436 l 2.566 2.315 l 2.43 2.191 l 2.293 2.066 l 2.155 1.939 l 2.016 1.81 l 1.876 1.679 l 1.736 1.546 l 1.596 1.413 l 1.455 1.277 l 1.315 1.141 l 1.174 1.004 l 1.034 0.8656 l 0.8937 0.7267 l 0.188 0.9501 l 0.04901 0.81 l -0.08919 0.6696 l -0.2265 0.529 l -0.3628 0.3884 l -0.4979 0.2478 l -0.6317 0.1075 l -0.7641 -0.03255 l -0.895 -0.1721 l -1.024 -0.311 l -1.151 -0.4491 l -1.277 -0.5863 l -1.4 -0.7225 l -1.521 -0.8575 l -1.64 -0.9912 l -1.757 -1.124 l -1.871 -1.254 l -1.982 -1.383 l -2.09 -1.51 l -2.196 -1.636 l -2.299 -1.759 l -2.398 -1.88 l -2.495 -1.998 l -2.588 -2.115 l -2.678 -2.228 l -2.764 -2.339 l -2.847 -2.448 l -2.926 -2.553 l -3.001 -2.655 l -3.073 -2.755 l -3.141 -2.851 l -3.205 -2.944 l -3.265 -3.033 l -3.321 -3.119 l -3.373 -3.202 l -3.421 -3.281 l -3.465 -3.356 l -3.504 -3.427 l -3.539 -3.495 l -3.57 -3.559 l -3.597 -3.618 l -3.619 -3.674 l -3.637 -3.726 l -3.65 -3.773 l -3.659 -3.816 l -3.664 -3.856 l -3.664 -3.89 l -3.66 -3.921 l -3.651 -3.947 l -3.638 -3.969 l -3.62 -3.986 l -3.599 -3.999 l -3.572 -4.008 l -3.542 -4.012 l -3.507 -4.012 l -3.468 -4.007 l -3.425 -3.998 l -3.377 -3.985 l -3.326 -3.967 l -3.27 -3.945 l -3.21 -3.918 l -3.147 -3.888 l -3.079 -3.852 l -3.008 -3.813 l -2.932 -3.769 l -2.853 -3.722 l -2.771 -3.67 l -2.685 -3.614 l -2.595 -3.554 l -2.502 -3.49 l -2.406 -3.422 l -2.307 -3.35 l -2.205 -3.274 l -2.099 -3.195 l -1.991 -3.112 l -1.88 -3.026 l -1.766 -2.936 l -1.65 -2.843 l -1.531 -2.747 l -1.41 -2.647 l -1.287 -2.544 l -1.162 -2.439 l -1.035 -2.33 l -0.9058 -2.219 l -0.7751 -2.105 l -0.6428 -1.989 l -0.5091 -1.87 l -0.3741 -1.749 l -0.2379 -1.625 l -0.1007 -1.5 l 0.03746 -1.373 l 0.1764 -1.243 l 0.3159 -1.113 l 0.4559 -0.9801 l 0.5962 -0.8463 l 0.7368 -0.7112 l 0.8775 -0.5749 l 1.018 -0.4376 l 1.158 -0.2994 l 1.298 -0.1605 l 1.786 0.3711 l 1.925 0.5111 l 2.064 0.6515 l 2.201 0.7921 l 2.337 0.9327 l 2.472 1.073 l 2.606 1.214 l 2.739 1.354 l 2.869 1.493 l 2.999 1.632 l 3.126 1.77 l 3.251 1.907 l 3.375 2.044 l 3.496 2.179 l 3.615 2.312 l 3.731 2.445 l 3.845 2.575 l 3.956 2.704 l 4.065 2.832 l 4.17 2.957 l 4.273 3.08 l 4.373 3.201 l 4.469 3.32 l 4.562 3.436 l 4.652 3.549 l 4.738 3.661 l 4.821 3.769 l 4.9 3.874 l 4.976 3.977 l 5.048 4.076 l 5.116 4.172 l 5.18 4.265 l 5.24 4.354 l 5.296 4.44 l 5.348 4.523 l 5.395 4.602 l 5.439 4.677 l 5.478 4.749 l 5.514 4.816 l 5.544 4.88 l 5.571 4.94 l 5.593 4.995 l 5.611 5.047 l 5.624 5.094 l 5.633 5.138 l 5.638 5.177 l 5.638 5.211 l 5.634 5.242 l 5.625 5.268 l 5.612 5.29 l 5.595 5.307 l 5.573 5.32 l 5.547 5.329 l 5.516 5.333 l 5.482 5.333 l 5.443 5.329 l 5.399 5.32 l 5.352 5.306 l 5.3 5.288 l 5.244 5.266 l 5.185 5.24 l 5.121 5.209 l 5.053 5.174 l 4.982 5.134 l 4.907 5.091 l 4.828 5.043 l 4.745 4.991 l 4.659 4.935 l 4.57 4.875 l 4.477 4.811 l 4.381 4.743 l 4.281 4.671 l 4.179 4.595 l 4.074 4.516 l 3.965 4.433 l 3.854 4.347 l 3.741 4.257 l 3.624 4.164 l 3.506 4.068 l 3.385 3.968 l 3.262 3.865 l 3.136 3.76 l 3.009 3.651 l 2.88 3.54 l 2.75 3.426 l 2.617 3.31 l 2.484 3.191 l 2.349 3.07 l 2.212 2.946 l 2.075 2.821 l 1.937 2.694 l 1.798 2.565 l 1.659 2.434 l 1.519 2.301 l 1.378 2.167 l 1.238 2.032 l 1.097 1.896 l 0.9564 1.759 l 0.816 1.621 l 0.676 1.482 l 1.03 0.8049 l 0.891 0.6648 l 0.7529 0.5244 l 0.6155 0.3839 l 0.4793 0.2432 l 0.3442 0.1026 l 0.2103 -0.03773 l 0.07793 -0.1777 l -0.05291 -0.3173 l -0.1821 -0.4562 l -0.3094 -0.5943 l -0.4348 -0.7315 l -0.5582 -0.8677 l -0.6793 -1.003 l -0.7982 -1.136 l -0.9146 -1.269 l -1.029 -1.399 l -1.14 -1.528 l -1.248 -1.656 l -1.354 -1.781 l -1.457 -1.904 l -1.556 -2.025 l -1.653 -2.144 l -1.746 -2.26 l -1.835 -2.374 l -1.922 -2.485 l -2.005 -2.593 l -2.084 -2.698 l -2.159 -2.801 l -2.231 -2.9 l -2.299 -2.996 l -2.363 -3.089 l -2.423 -3.178 l -2.479 -3.265 l -2.531 -3.347 l -2.579 -3.426 l -2.623 -3.501 l -2.662 -3.573 l -2.697 -3.64 l -2.728 -3.704 l -2.755 -3.764 l -2.777 -3.819 l -2.795 -3.871 l -2.808 -3.918 l -2.817 -3.962 l -2.822 -4.001 l -2.822 -4.036 l -2.818 -4.066 l -2.809 -4.092 l -2.796 -4.114 l -2.778 -4.131 l -2.757 -4.145 l -2.73 -4.153 l -2.7 -4.157 l -2.665 -4.157 l -2.626 -4.153 l -2.583 -4.144 l -2.535 -4.13 l -2.484 -4.112 l -2.428 -4.09 l -2.368 -4.064 l -2.305 -4.033 l -2.237 -3.998 l -2.166 -3.958 l -2.09 -3.915 l -2.011 -3.867 l -1.929 -3.815 l -1.843 -3.759 l -1.753 -3.699 l -1.66 -3.635 l -1.564 -3.567 l -1.465 -3.495 l -1.363 -3.42 l -1.257 -3.34 l -1.149 -3.257 l -1.038 -3.171 l -0.9242 -3.081 l -0.808 -2.988 l -0.6893 -2.892 l -0.5683 -2.792 l -0.4452 -2.69 l -0.3199 -2.584 l -0.1928 -2.475 l -0.06374 -2.364 l 0.06697 -2.25 l 0.1992 -2.134 l 0.333 -2.015 l 0.468 -1.894 l 0.6042 -1.77 l 0.7414 -1.645 l 0.8795 -1.518 l 1.018 -1.389 l 1.158 -1.258 l 1.298 -1.125 l 1.438 -0.9915 l 1.579 -0.8564 l 1.72 -0.7201 l 1.86 -0.5828 l 2.0 -0.4446 l 2.141 -0.3057 l 2.324 -0.8629 l 2.463 -0.7229 l 2.601 -0.5825 l 2.738 -0.4419 l 2.874 -0.3013 l 3.009 -0.1607 l 3.143 -0.02034 l 3.276 0.1197 l 3.407 0.2592 l 3.536 0.3981 l 3.663 0.5362 l 3.788 0.6734 l 3.912 0.8096 l 4.033 0.9446 l 4.152 1.078 l 4.268 1.211 l 4.382 1.341 l 4.493 1.47 l 4.602 1.598 l 4.708 1.723 l 4.81 1.846 l 4.91 1.967 l 5.006 2.086 l 5.099 2.202 l 5.189 2.315 l 5.275 2.426 l 5.358 2.535 l 5.437 2.64 l 5.513 2.743 l 5.585 2.842 l 5.653 2.938 l 5.717 3.031 l 5.777 3.12 l 5.833 3.206 l 5.885 3.289 l 5.933 3.368 l 5.976 3.443 l 6.016 3.515 l 6.051 3.582 l 6.082 3.646 l 6.108 3.706 l 6.13 3.761 l 6.148 3.813 l 6.162 3.86 l 6.171 3.904 l 6.175 3.943 l 6.175 3.977 l 6.171 4.008 l 6.163 4.034 l 6.149 4.056 l 6.132 4.073 l 6.11 4.086 l 6.084 4.095 l 6.054 4.099 l 6.019 4.099 l 5.98 4.095 l 5.936 4.086 l 5.889 4.072 l 5.837 4.054 l 5.782 4.032 l 5.722 4.006 l 5.658 3.975 l 5.591 3.94 l 5.519 3.9 l 5.444 3.857 l 5.365 3.809 l 5.283 3.757 l 5.196 3.701 l 5.107 3.641 l 5.014 3.577 l 4.918 3.509 l 4.819 3.437 l 4.716 3.361 l 4.611 3.282 l 4.503 3.199 l 4.392 3.113 l 4.278 3.023 l 4.162 2.93 l 4.043 2.834 l 3.922 2.734 l 3.799 2.631 l 3.674 2.526 l 3.546 2.417 l 3.417 2.306 l 3.287 2.192 l 3.154 2.076 l 3.021 1.957 l 2.886 1.836 l 2.749 1.712 l 2.612 1.587 l 2.474 1.46 l 2.335 1.331 l 2.196 1.2 l 2.056 1.067 l 1.915 0.9334 l 1.775 0.7983 l 1.634 0.662 l 1.494 0.5247 l 1.353 0.3865 l 1.213 0.2476 l 0.6961 -0.313 l 0.5572 -0.453 l 0.419 -0.5934 l 0.2817 -0.734 l 0.1454 -0.8747 l 0.01026 -1.015 l -0.1236 -1.156 l -0.256 -1.296 l -0.3868 -1.435 l -0.516 -1.574 l -0.6433 -1.712 l -0.7687 -1.849 l -0.8921 -1.986 l -1.013 -2.121 l -1.132 -2.254 l -1.249 -2.387 l -1.362 -2.517 l -1.474 -2.646 l -1.582 -2.773 l -1.688 -2.899 l -1.79 -3.022 l -1.89 -3.143 l -1.986 -3.262 l -2.08 -3.378 l -2.169 -3.491 l -2.256 -3.602 l -2.339 -3.711 l -2.418 -3.816 l -2.493 -3.918 l -2.565 -4.018 l -2.633 -4.114 l -2.697 -4.207 l -2.757 -4.296 l -2.813 -4.382 l -2.865 -4.465 l -2.913 -4.544 l -2.956 -4.619 l -2.996 -4.69 l -3.031 -4.758 l -3.062 -4.822 l -3.088 -4.882 l -3.111 -4.937 l -3.128 -4.989 l -3.142 -5.036 l -3.151 -5.08 l -3.155 -5.119 l -3.156 -5.153 l -3.151 -5.184 l -3.143 -5.21 l -3.13 -5.232 l -3.112 -5.249 l -3.09 -5.262 l -3.064 -5.271 l -3.034 -5.275 l -2.999 -5.275 l -2.96 -5.271 l -2.917 -5.261 l -2.869 -5.248 l -2.818 -5.23 l -2.762 -5.208 l -2.702 -5.182 l -2.638 -5.151 l -2.571 -5.116 l -2.499 -5.076 l -2.424 -5.032 l -2.345 -4.985 l -2.263 -4.933 l -2.177 -4.877 l -2.087 -4.817 l -1.994 -4.753 l -1.898 -4.685 l -1.799 -4.613 l -1.696 -4.537 l -1.591 -4.458 l -1.483 -4.375 l -1.372 -4.289 l -1.258 -4.199 l -1.142 -4.106 l -1.023 -4.01 l -0.9022 -3.91 l -0.7791 -3.807 l -0.6538 -3.702 l -0.5266 -3.593 l -0.3976 -3.482 l -0.2669 -3.368 l -0.1346 -3.252 l -0.0009385 -3.133 l 0.1341 -3.012 l 0.2703 -2.888 l 0.4075 -2.763 l 0.5456 -2.636 l 0.6845 -2.506 l 0.824 -2.376 l 0.964 -2.243 l 1.104 -2.109 l 1.245 -1.974 l 1.386 -1.838 l 1.526 -1.701 l 1.667 -1.562 l 1.807 -1.424 l 2.251 -2.358 l 2.39 -2.218 l 2.528 -2.078 l 2.666 -1.937 l 2.802 -1.797 l 2.937 -1.656 l 3.071 -1.516 l 3.203 -1.376 l 3.334 -1.236 l 3.463 -1.097 l 3.59 -0.9592 l 3.716 -0.8219 l 3.839 -0.6857 l 3.96 -0.5507 l 4.079 -0.417 l 4.196 -0.2847 l 4.31 -0.154 l 4.421 -0.02503 l 4.529 0.1022 l 4.635 0.2274 l 4.738 0.3506 l 4.837 0.4715 l 4.934 0.5902 l 5.027 0.7064 l 5.117 0.8201 l 5.203 0.9311 l 5.286 1.039 l 5.365 1.145 l 5.44 1.247 l 5.512 1.346 l 5.58 1.443 l 5.644 1.536 l 5.704 1.625 l 5.76 1.711 l 5.812 1.794 l 5.86 1.873 l 5.904 1.948 l 5.943 2.019 l 5.978 2.087 l 6.009 2.15 l 6.036 2.21 l 6.058 2.266 l 6.076 2.317 l 6.089 2.365 l 6.098 2.408 l 6.103 2.447 l 6.103 2.482 l 6.099 2.513 l 6.09 2.539 l 6.077 2.561 l 6.059 2.578 l 6.038 2.591 l 6.011 2.6 l 5.981 2.604 l 5.946 2.604 l 5.907 2.599 l 5.864 2.59 l 5.816 2.577 l 5.765 2.559 l 5.709 2.537 l 5.649 2.51 l 5.586 2.479 l 5.518 2.444 l 5.447 2.405 l 5.371 2.361 l 5.292 2.313 l 5.21 2.261 l 5.124 2.205 l 5.034 2.145 l 4.941 2.081 l 4.845 2.013 l 4.746 1.942 l 4.644 1.866 l 4.538 1.787 l 4.43 1.704 l 4.319 1.618 l 4.205 1.528 l 4.089 1.435 l 3.97 1.338 l 3.849 1.239 l 3.726 1.136 l 3.601 1.03 l 3.474 0.922 l 3.345 0.8107 l 3.214 0.6968 l 3.082 0.5804 l 2.948 0.4615 l 2.813 0.3404 l 2.677 0.217 l 2.54 0.09163 l 2.402 -0.03571 l 2.263 -0.1649 l 2.123 -0.2957 l 1.983 -0.4281 l 1.843 -0.5619 l 1.702 -0.6971 l 1.562 -0.8333 l 1.421 -0.9706 l 1.281 -1.109 l 1.141 -1.248 l 0.1154 -1.983 l -0.02356 -2.123 l -0.1618 -2.263 l -0.2991 -2.404 l -0.4353 -2.544 l -0.5705 -2.685 l -0.7043 -2.825 l -0.8367 -2.965 l -0.9675 -3.105 l -1.097 -3.244 l -1.224 -3.382 l -1.349 -3.519 l -1.473 -3.655 l -1.594 -3.79 l -1.713 -3.924 l -1.829 -4.056 l -1.943 -4.187 l -2.054 -4.316 l -2.163 -4.443 l -2.268 -4.568 l -2.371 -4.691 l -2.471 -4.812 l -2.567 -4.931 l -2.66 -5.047 l -2.75 -5.161 l -2.836 -5.272 l -2.919 -5.38 l -2.998 -5.486 l -3.074 -5.588 l -3.146 -5.687 l -3.214 -5.784 l -3.278 -5.876 l -3.338 -5.966 l -3.394 -6.052 l -3.446 -6.135 l -3.494 -6.213 l -3.537 -6.289 l -3.577 -6.36 l -3.612 -6.428 l -3.643 -6.491 l -3.669 -6.551 l -3.691 -6.607 l -3.709 -6.658 l -3.723 -6.706 l -3.732 -6.749 l -3.736 -6.788 l -3.736 -6.823 l -3.732 -6.853 l -3.723 -6.88 l -3.71 -6.901 l -3.693 -6.919 l -3.671 -6.932 l -3.645 -6.941 l -3.614 -6.945 l -3.58 -6.945 l -3.541 -6.94 l -3.497 -6.931 l -3.45 -6.918 l -3.398 -6.9 l -3.343 -6.878 l -3.283 -6.851 l -3.219 -6.82 l -3.152 -6.785 l -3.08 -6.746 l -3.005 -6.702 l -2.926 -6.654 l -2.843 -6.602 l -2.757 -6.546 l -2.668 -6.486 l -2.575 -6.422 l -2.479 -6.354 l -2.38 -6.282 l -2.277 -6.207 l -2.172 -6.128 l -2.064 -6.045 l -1.952 -5.959 l -1.839 -5.869 l -1.723 -5.776 l -1.604 -5.679 l -1.483 -5.58 l -1.36 -5.477 l -1.235 -5.371 l -1.107 -5.263 l -0.9784 -5.152 l -0.8476 -5.038 l -0.7154 -4.921 l -0.5817 -4.802 l -0.4466 -4.681 l -0.3105 -4.558 l -0.1732 -4.433 l -0.03511 -4.305 l 0.1038 -4.176 l 0.2433 -4.045 l 0.3833 -3.913 l 0.5237 -3.779 l 0.6643 -3.644 l 0.8049 -3.508 l 0.9455 -3.37 l 1.086 -3.232 l 1.226 -3.093 l 0.654 -2.562 l 0.793 -2.422 l 0.9312 -2.281 l 1.068 -2.141 l 1.205 -2.0 l 1.34 -1.859 l 1.474 -1.719 l 1.606 -1.579 l 1.737 -1.439 l 1.866 -1.301 l 1.993 -1.162 l 2.119 -1.025 l 2.242 -0.889 l 2.363 -0.754 l 2.482 -0.6203 l 2.599 -0.488 l 2.713 -0.3573 l 2.824 -0.2283 l 2.932 -0.1011 l 3.038 0.02416 l 3.141 0.1473 l 3.24 0.2683 l 3.337 0.387 l 3.43 0.5032 l 3.52 0.6169 l 3.606 0.7279 l 3.689 0.8361 l 3.768 0.9415 l 3.843 1.044 l 3.915 1.143 l 3.983 1.239 l 4.047 1.332 l 4.107 1.422 l 4.163 1.508 l 4.215 1.59 l 4.263 1.669 l 4.307 1.744 l 4.346 1.816 l 4.381 1.884 l 4.412 1.947 l 4.439 2.007 l 4.461 2.063 l 4.479 2.114 l 4.492 2.162 l 4.501 2.205 l 4.506 2.244 l 4.506 2.279 l 4.502 2.309 l 4.493 2.336 l 4.48 2.357 l 4.462 2.375 l 4.441 2.388 l 4.414 2.397 l 4.384 2.401 l 4.349 2.401 l 4.31 2.396 l 4.267 2.387 l 4.219 2.374 l 4.168 2.356 l 4.112 2.334 l 4.052 2.307 l 3.989 2.276 l 3.921 2.241 l 3.85 2.202 l 3.774 2.158 l 3.695 2.11 l 3.613 2.058 l 3.527 2.002 l 3.437 1.942 l 3.344 1.878 l 3.248 1.81 l 3.149 1.738 l 3.047 1.663 l 2.941 1.584 l 2.833 1.501 l 2.722 1.414 l 2.608 1.325 l 2.492 1.232 l 2.373 1.135 l 2.252 1.036 l 2.129 0.9329 l 2.004 0.8272 l 1.877 0.7187 l 1.748 0.6075 l 1.617 0.4936 l 1.485 0.3772 l 1.351 0.2583 l 1.216 0.1371 l 1.08 0.0138 l 0.9427 -0.1116 l 0.8045 -0.2389 l 0.6656 -0.3681 l 0.5261 -0.4989 l 0.3861 -0.6313 l 0.2458 -0.7652 l 0.1052 -0.9003 l -0.03548 -1.037 l -0.1761 -1.174 l -0.3165 -1.312 l -0.4565 -1.451 l -1.38 -2.346 l -1.519 -2.486 l -1.657 -2.626 l -1.794 -2.767 l -1.931 -2.907 l -2.066 -3.048 l -2.2 -3.188 l -2.332 -3.328 l -2.463 -3.468 l -2.592 -3.607 l -2.719 -3.745 l -2.845 -3.882 l -2.968 -4.018 l -3.089 -4.153 l -3.208 -4.287 l -3.325 -4.419 l -3.438 -4.55 l -3.55 -4.679 l -3.658 -4.806 l -3.764 -4.931 l -3.867 -5.054 l -3.966 -5.175 l -4.063 -5.294 l -4.156 -5.41 l -4.245 -5.524 l -4.332 -5.635 l -4.415 -5.743 l -4.494 -5.849 l -4.569 -5.951 l -4.641 -6.05 l -4.709 -6.146 l -4.773 -6.239 l -4.833 -6.329 l -4.889 -6.415 l -4.941 -6.497 l -4.989 -6.576 l -5.033 -6.652 l -5.072 -6.723 l -5.107 -6.791 l -5.138 -6.854 l -5.165 -6.914 l -5.187 -6.97 l -5.205 -7.021 l -5.218 -7.069 l -5.227 -7.112 l -5.232 -7.151 l -5.232 -7.186 l -5.228 -7.216 l -5.219 -7.243 l -5.206 -7.264 l -5.188 -7.282 l -5.167 -7.295 l -5.14 -7.304 l -5.11 -7.308 l -5.075 -7.308 l -5.036 -7.303 l -4.993 -7.294 l -4.945 -7.281 l -4.894 -7.263 l -4.838 -7.241 l -4.778 -7.214 l -4.715 -7.183 l -4.647 -7.148 l -4.576 -7.109 l -4.5 -7.065 l -4.421 -7.017 l -4.339 -6.965 l -4.253 -6.909 l -4.163 -6.849 l -4.07 -6.785 l -3.974 -6.717 l -3.875 -6.645 l -3.773 -6.57 l -3.667 -6.491 l -3.559 -6.408 l -3.448 -6.322 l -3.334 -6.232 l -3.218 -6.139 l -3.099 -6.042 l -2.978 -5.943 l -2.855 -5.84 l -2.73 -5.734 l -2.603 -5.626 l -2.474 -5.515 l -2.343 -5.401 l -2.211 -5.284 l -2.077 -5.165 l -1.942 -5.044 l -1.806 -4.921 l -1.669 -4.795 l -1.53 -4.668 l -1.392 -4.539 l -1.252 -4.408 l -1.112 -4.276 l -0.9717 -4.142 l -0.8311 -4.007 l -0.6905 -3.871 l -0.5499 -3.733 l -0.4095 -3.595 l -0.2695 -3.456 l -0.8412 -2.533 l -0.7023 -2.392 l -0.5641 -2.252 l -0.4268 -2.112 l -0.2905 -1.971 l -0.1554 -1.83 l -0.02157 -1.69 l 0.1108 -1.55 l 0.2417 -1.41 l 0.3708 -1.271 l 0.4982 -1.133 l 0.6236 -0.9961 l 0.7469 -0.86 l 0.8681 -0.7249 l 0.9869 -0.5912 l 1.103 -0.459 l 1.217 -0.3282 l 1.329 -0.1992 l 1.437 -0.07205 l 1.543 0.05319 l 1.645 0.1764 l 1.745 0.2973 l 1.841 0.416 l 1.934 0.5322 l 2.024 0.6459 l 2.111 0.7569 l 2.193 0.8652 l 2.273 0.9706 l 2.348 1.073 l 2.42 1.172 l 2.488 1.268 l 2.552 1.361 l 2.612 1.451 l 2.668 1.537 l 2.72 1.619 l 2.768 1.698 l 2.811 1.774 l 2.851 1.845 l 2.886 1.913 l 2.917 1.976 l 2.943 2.036 l 2.965 2.092 l 2.983 2.143 l 2.997 2.191 l 3.006 2.234 l 3.01 2.273 l 3.011 2.308 l 3.006 2.338 l 2.998 2.365 l 2.985 2.386 l 2.967 2.404 l 2.945 2.417 l 2.919 2.426 l 2.889 2.43 l 2.854 2.43 l 2.815 2.425 l 2.771 2.416 l 2.724 2.403 l 2.672 2.385 l 2.617 2.363 l 2.557 2.336 l 2.493 2.305 l 2.426 2.27 l 2.354 2.231 l 2.279 2.187 l 2.2 2.139 l 2.118 2.087 l 2.032 2.031 l 1.942 1.971 l 1.849 1.907 l 1.753 1.839 l 1.654 1.767 l 1.551 1.692 l 1.446 1.613 l 1.338 1.53 l 1.227 1.443 l 1.113 1.354 l 0.9967 1.261 l 0.8781 1.164 l 0.7571 1.065 l 0.6339 0.9619 l 0.5087 0.8563 l 0.3815 0.7478 l 0.2525 0.6365 l 0.1218 0.5226 l -0.01048 0.4062 l -0.1442 0.2873 l -0.2792 0.1662 l -0.4154 0.04283 l -0.5526 -0.08258 l -0.6907 -0.2099 l -0.8296 -0.3391 l -0.9692 -0.4699 l -1.109 -0.6023 l -1.25 -0.7361 l -1.39 -0.8713 l -1.531 -1.008 l -1.671 -1.145 l -1.812 -1.283 l -1.952 -1.422 l -4.726 -3.507 l -4.865 -3.647 l -5.004 -3.787 l -5.141 -3.928 l -5.277 -4.069 l -5.412 -4.209 l -5.546 -4.35 l -5.678 -4.49 l -5.809 -4.629 l -5.938 -4.768 l -6.066 -4.906 l -6.191 -5.043 l -6.315 -5.18 l -6.436 -5.315 l -6.555 -5.448 l -6.671 -5.581 l -6.785 -5.711 l -6.896 -5.84 l -7.005 -5.967 l -7.11 -6.093 l -7.213 -6.216 l -7.312 -6.337 l -7.409 -6.455 l -7.502 -6.572 l -7.592 -6.685 l -7.678 -6.796 l -7.761 -6.905 l -7.84 -7.01 l -7.916 -7.112 l -7.988 -7.212 l -8.055 -7.308 l -8.119 -7.401 l -8.18 -7.49 l -8.236 -7.576 l -8.287 -7.659 l -8.335 -7.738 l -8.379 -7.813 l -8.418 -7.884 l -8.454 -7.952 l -8.484 -8.016 l -8.511 -8.075 l -8.533 -8.131 l -8.551 -8.183 l -8.564 -8.23 l -8.573 -8.274 l -8.578 -8.313 l -8.578 -8.347 l -8.574 -8.378 l -8.565 -8.404 l -8.552 -8.426 l -8.535 -8.443 l -8.513 -8.456 l -8.487 -8.465 l -8.456 -8.469 l -8.421 -8.469 l -8.382 -8.464 l -8.339 -8.455 l -8.292 -8.442 l -8.24 -8.424 l -8.184 -8.402 l -8.125 -8.376 l -8.061 -8.345 l -7.993 -8.309 l -7.922 -8.27 l -7.847 -8.226 l -7.768 -8.179 l -7.685 -8.127 l -7.599 -8.071 l -7.51 -8.011 l -7.417 -7.947 l -7.321 -7.879 l -7.221 -7.807 l -7.119 -7.731 l -7.014 -7.652 l -6.905 -7.569 l -6.794 -7.483 l -6.681 -7.393 l -6.564 -7.3 l -6.446 -7.204 l -6.325 -7.104 l -6.202 -7.001 l -6.076 -6.896 l -5.949 -6.787 l -5.82 -6.676 l -5.689 -6.562 l -5.557 -6.446 l -5.423 -6.327 l -5.288 -6.206 l -5.152 -6.082 l -5.015 -5.957 l -4.877 -5.83 l -4.738 -5.7 l -4.598 -5.57 l -4.458 -5.437 l -4.318 -5.303 l -4.178 -5.168 l -4.037 -5.032 l -3.896 -4.895 l -3.756 -4.756 l -3.616 -4.618 l -3.476 -4.478 l -3.337 -4.338 l -3.199 -4.198 l -3.062 -4.057 l -2.926 -3.916 l -2.79 -3.776 l -2.657 -3.635 l -2.524 -3.495 l -2.393 -3.356 l -2.264 -3.217 l -2.137 -3.079 l -2.011 -2.942 l -1.888 -2.805 l -1.767 -2.67 l -1.648 -2.537 l -1.532 -2.404 l -1.418 -2.274 l -1.307 -2.145 l -1.198 -2.017 l -1.092 -1.892 l -0.9897 -1.769 l -0.8902 -1.648 l -0.7937 -1.529 l -0.7006 -1.413 l -0.6108 -1.3 l -0.5244 -1.188 l -0.4416 -1.08 l -0.3624 -0.9749 l -0.2869 -0.8725 l -0.2151 -0.7731 l -0.1472 -0.677 l -0.08319 -0.5841 l -0.02314 -0.4946 l 0.03289 -0.4085 l 0.08484 -0.326 l 0.1327 -0.2471 l 0.1763 -0.1719 l 0.2157 -0.1004 l 0.2509 -0.03285 l 0.2817 0.03084 l 0.3083 0.09056 l 0.3305 0.1463 l 0.3483 0.1979 l 0.3617 0.2453 l 0.3707 0.2886 l 0.3753 0.3277 l 0.3755 0.3625 l 0.3713 0.393 l 0.3626 0.4192 l 0.3496 0.441 l 0.3321 0.4584 l 0.3103 0.4715 l 0.2841 0.4801 l 0.2536 0.4844 l 0.2188 0.4842 l 0.1797 0.4796 l 0.1365 0.4706 l 0.08898 0.4571 l 0.03738 0.4393 l -0.01831 0.4171 l -0.07803 0.3906 l -0.1417 0.3597 l -0.2093 0.3246 l -0.2808 0.2852 l -0.356 0.2415 l -0.4349 0.1937 l -0.5174 0.1418 l -0.6035 0.08574 l -0.693 0.02568 l -0.7859 -0.03833 l -0.882 -0.1063 l -0.9813 -0.178 l -1.084 -0.2535 l -1.189 -0.3327 l -1.297 -0.4156 l -1.408 -0.5019 l -1.522 -0.5917 l -1.638 -0.6849 l -1.757 -0.7813 l -1.878 -0.8809 l -2.001 -0.9835 l -2.126 -1.089 l -2.254 -1.198 l -2.383 -1.309 l -2.513 -1.423 l -2.646 -1.539 l -2.779 -1.658 l -2.914 -1.779 l -3.05 -1.903 l -3.188 -2.028 l -3.326 -2.155 l -3.465 -2.284 l -3.604 -2.415 l -3.744 -2.548 l -3.885 -2.682 l -4.025 -2.817 l -4.166 -2.953 l -4.306 -3.09 l -4.447 -3.228 l -4.587 -3.367 l -4.726 4.478 l -4.865 4.338 l -5.004 4.198 l -5.141 4.057 l -5.277 3.916 l -5.412 3.776 l -5.546 3.635 l -5.678 3.495 l -5.809 3.356 l -5.938 3.217 l -6.066 3.079 l -6.191 2.942 l -6.315 2.805 l -6.436 2.67 l -6.555 2.537 l -6.671 2.404 l -6.785 2.274 l -6.896 2.145 l -7.005 2.017 l -7.11 1.892 l -7.213 1.769 l -7.313 1.648 l -7.409 1.529 l -7.502 1.413 l -7.592 1.3 l -7.678 1.188 l -7.761 1.08 l -7.84 0.9749 l -7.916 0.8725 l -7.988 0.7731 l -8.055 0.677 l -8.119 0.5841 l -8.18 0.4946 l -8.236 0.4085 l -8.288 0.326 l -8.335 0.2471 l -8.379 0.1719 l -8.418 0.1004 l -8.454 0.03285 l -8.484 -0.03084 l -8.511 -0.09056 l -8.533 -0.1463 l -8.551 -0.1979 l -8.564 -0.2453 l -8.573 -0.2886 l -8.578 -0.3277 l -8.578 -0.3625 l -8.574 -0.393 l -8.565 -0.4192 l -8.552 -0.441 l -8.535 -0.4584 l -8.513 -0.4715 l -8.487 -0.4801 l -8.456 -0.4844 l -8.421 -0.4842 l -8.382 -0.4796 l -8.339 -0.4706 l -8.292 -0.4571 l -8.24 -0.4393 l -8.184 -0.4171 l -8.125 -0.3906 l -8.061 -0.3597 l -7.993 -0.3246 l -7.922 -0.2852 l -7.847 -0.2415 l -7.768 -0.1937 l -7.685 -0.1418 l -7.599 -0.08574 l -7.51 -0.02568 l -7.417 0.03833 l -7.321 0.1063 l -7.221 0.178 l -7.119 0.2535 l -7.014 0.3327 l -6.905 0.4156 l -6.794 0.5019 l -6.681 0.5917 l -6.564 0.6849 l -6.446 0.7813 l -6.325 0.8809 l -6.202 0.9835 l -6.076 1.089 l -5.949 1.198 l -5.82 1.309 l -5.689 1.423 l -5.557 1.539 l -5.423 1.658 l -5.288 1.779 l -5.152 1.903 l -5.015 2.028 l -4.877 2.155 l -4.738 2.284 l -4.598 2.415 l -4.458 2.548 l -4.318 2.682 l -4.178 2.817 l -4.037 2.953 l -3.896 3.09 l -3.756 3.228 l -3.616 3.367 l -3.476 3.507 l -3.337 3.647 l -3.199 3.787 l -3.062 3.928 l -2.926 4.069 l -2.79 4.209 l -2.657 4.35 l -2.524 4.49 l -2.393 4.629 l -2.264 4.768 l -2.137 4.906 l -2.011 5.043 l -1.888 5.18 l -1.767 5.315 l -1.648 5.448 l -1.532 5.581 l -1.418 5.711 l -1.307 5.84 l -1.198 5.967 l -1.092 6.093 l -0.9898 6.216 l -0.8902 6.337 l -0.7938 6.455 l -0.7006 6.572 l -0.6108 6.685 l -0.5245 6.796 l -0.4416 6.905 l -0.3624 7.01 l -0.2869 7.112 l -0.2151 7.212 l -0.1472 7.308 l -0.08321 7.401 l -0.02316 7.49 l 0.03287 7.576 l 0.08482 7.659 l 0.1326 7.738 l 0.1763 7.813 l 0.2157 7.884 l 0.2509 7.952 l 0.2817 8.016 l 0.3082 8.075 l 0.3304 8.131 l 0.3482 8.183 l 0.3617 8.23 l 0.3707 8.274 l 0.3753 8.313 l 0.3755 8.347 l 0.3712 8.378 l 0.3626 8.404 l 0.3495 8.426 l 0.3321 8.443 l 0.3103 8.456 l 0.2841 8.465 l 0.2536 8.469 l 0.2188 8.469 l 0.1797 8.464 l 0.1364 8.455 l 0.08896 8.442 l 0.03736 8.424 l -0.01833 8.402 l -0.07805 8.376 l -0.1417 8.345 l -0.2093 8.309 l -0.2808 8.27 l -0.356 8.226 l -0.4349 8.179 l -0.5174 8.127 l -0.6035 8.071 l -0.693 8.011 l -0.7859 7.947 l -0.882 7.879 l -0.9813 7.807 l -1.084 7.731 l -1.189 7.652 l -1.297 7.569 l -1.408 7.483 l -1.522 7.393 l -1.638 7.3 l -1.757 7.204 l -1.878 7.104 l -2.001 7.001 l -2.126 6.896 l -2.254 6.787 l -2.383 6.676 l -2.513 6.562 l -2.646 6.446 l -2.779 6.327 l -2.914 6.206 l -3.05 6.082 l -3.188 5.957 l -3.326 5.83 l -3.465 5.7 l -3.604 5.57 l -3.744 5.437 l -3.885 5.303 l -4.025 5.168 l -4.166 5.032 l -4.306 4.895 l -4.447 4.756 l -4.587 4.618 l -2.091 2.533 l -2.23 2.392 l -2.369 2.252 l -2.506 2.112 l -2.642 1.971 l -2.777 1.83 l -2.911 1.69 l -3.043 1.55 l -3.174 1.41 l -3.303 1.271 l -3.431 1.133 l -3.556 0.9961 l -3.68 0.86 l -3.801 0.7249 l -3.92 0.5912 l -4.036 0.459 l -4.15 0.3282 l -4.261 0.1992 l -4.37 0.07205 l -4.475 -0.05319 l -4.578 -0.1764 l -4.678 -0.2973 l -4.774 -0.416 l -4.867 -0.5322 l -4.957 -0.6459 l -5.043 -0.7569 l -5.126 -0.8652 l -5.205 -0.9706 l -5.281 -1.073 l -5.353 -1.172 l -5.42 -1.268 l -5.484 -1.361 l -5.545 -1.451 l -5.601 -1.537 l -5.653 -1.619 l -5.7 -1.698 l -5.744 -1.774 l -5.783 -1.845 l -5.819 -1.913 l -5.849 -1.976 l -5.876 -2.036 l -5.898 -2.092 l -5.916 -2.143 l -5.929 -2.191 l -5.938 -2.234 l -5.943 -2.273 l -5.943 -2.308 l -5.939 -2.338 l -5.93 -2.365 l -5.917 -2.386 l -5.9 -2.404 l -5.878 -2.417 l -5.852 -2.426 l -5.821 -2.43 l -5.786 -2.43 l -5.747 -2.425 l -5.704 -2.416 l -5.657 -2.403 l -5.605 -2.385 l -5.549 -2.363 l -5.49 -2.336 l -5.426 -2.305 l -5.358 -2.27 l -5.287 -2.231 l -5.212 -2.187 l -5.133 -2.139 l -5.05 -2.087 l -4.964 -2.031 l -4.875 -1.971 l -4.782 -1.907 l -4.686 -1.839 l -4.586 -1.767 l -4.484 -1.692 l -4.379 -1.613 l -4.27 -1.53 l -4.159 -1.443 l -4.046 -1.354 l -3.929 -1.261 l -3.811 -1.164 l -3.69 -1.065 l -3.567 -0.9619 l -3.441 -0.8563 l -3.314 -0.7478 l -3.185 -0.6365 l -3.054 -0.5226 l -2.922 -0.4062 l -2.788 -0.2873 l -2.653 -0.1662 l -2.517 -0.04283 l -2.38 0.08258 l -2.242 0.2099 l -2.103 0.3391 l -1.963 0.4699 l -1.823 0.6023 l -1.683 0.7361 l -1.543 0.8713 l -1.402 1.008 l -1.261 1.145 l -1.121 1.283 l -0.9809 1.422 l -0.1299 2.346 l 0.009061 2.486 l 0.1473 2.626 l 0.2846 2.767 l 0.4208 2.907 l 0.556 3.048 l 0.6898 3.188 l 0.8222 3.328 l 0.953 3.468 l 1.082 3.607 l 1.21 3.745 l 1.335 3.882 l 1.458 4.018 l 1.579 4.153 l 1.698 4.287 l 1.815 4.419 l 1.929 4.55 l 2.04 4.679 l 2.148 4.806 l 2.254 4.931 l 2.357 5.054 l 2.456 5.175 l 2.553 5.294 l 2.646 5.41 l 2.736 5.524 l 2.822 5.635 l 2.905 5.743 l 2.984 5.849 l 3.059 5.951 l 3.131 6.05 l 3.199 6.146 l 3.263 6.239 l 3.323 6.329 l 3.379 6.415 l 3.431 6.497 l 3.479 6.576 l 3.523 6.652 l 3.562 6.723 l 3.597 6.791 l 3.628 6.854 l 3.655 6.914 l 3.677 6.97 l 3.695 7.021 l 3.708 7.069 l 3.717 7.112 l 3.722 7.151 l 3.722 7.186 l 3.718 7.216 l 3.709 7.243 l 3.696 7.264 l 3.678 7.282 l 3.657 7.295 l 3.63 7.304 l 3.6 7.308 l 3.565 7.308 l 3.526 7.303 l 3.483 7.294 l 3.435 7.281 l 3.384 7.263 l 3.328 7.241 l 3.268 7.214 l 3.205 7.183 l 3.137 7.148 l 3.066 7.109 l 2.99 7.065 l 2.912 7.017 l 2.829 6.965 l 2.743 6.909 l 2.653 6.849 l 2.561 6.785 l 2.464 6.717 l 2.365 6.645 l 2.263 6.57 l 2.157 6.491 l 2.049 6.408 l 1.938 6.322 l 1.824 6.232 l 1.708 6.139 l 1.589 6.042 l 1.468 5.943 l 1.345 5.84 l 1.22 5.734 l 1.093 5.626 l 0.9639 5.515 l 0.8331 5.401 l 0.7009 5.284 l 0.5672 5.165 l 0.4321 5.044 l 0.296 4.921 l 0.1587 4.795 l 0.02061 4.668 l -0.1183 4.539 l -0.2578 4.408 l -0.3978 4.276 l -0.5382 4.142 l -0.6788 4.007 l -0.8194 3.871 l -0.96 3.733 l -1.1 3.595 l -1.24 3.456" style="stroke:#00ff00;fill:none;stroke-width:5;stroke-miterlimit:4;stroke-dasharray:none" /><path d="M 901.0 141.4 l -4.587 3.367 l -4.447 3.228 l -4.306 3.09 l -4.166 2.953 l -4.025 2.817 l -3.885 2.682 l -3.744 2.548 l -3.604 2.415 l -3.465 2.284 l -3.326 2.155 l -3.188 2.028 l -3.05 1.903 l -2.914 1.779 l -2.779 1.658 l -2.646 1.539 l -2.513 1.423 l -2.383 1.309 l -2.254 1.198 l -2.126 1.089 l -2.001 0.9835 l -1.878 0.8809 l -1.757 0.7813 l -1.638 0.6849 l -1.522 0.5917 l -1.408 0.5019 l -1.297 0.4156 l -1.189 0.3327 l -1.084 0.2535 l -0.9813 0.178 l -0.882 0.1063 l -0.7859 0.03833 l -0.693 -0.02568 l -0.6035 -0.08574 l -0.5174 -0.1418 l -0.4349 -0.1937 l -0.356 -0.2415 l -0.2808 -0.2852 l -0.2093 -0.3246 l -0.1417 -0.3597 l -0.07805 -0.3906 l -0.01833 -0.4171 l 0.03736 -0.4393 l 0.08896 -0.4571 l 0.1364 -0.4706 l 0.1797 -0.4796 l 0.2188 -0.4842 l 0.2536 -0.4844 l 0.2841 -0.4801 l 0.3103 -0.4715 l 0.3321 -0.4584 l 0.3495 -0.441 l 0.3626 -0.4192 l 0.3712 -0.393 l 0.3755 -0.3625 l 0.3753 -0.3277 l 0.3707 -0.2886 l 0.3617 -0.2453 l 0.3482 -0.1979 l 0.3304 -0.1463 l 0.3082 -0.09056 l 0.2817 -0.03084 l 0.2509 0.03285 l 0.2157 0.1004 l 0.1763 0.1719 l 0.1326 0.2471 l 0.08482 0.326 l 0.03287 0.4085 l -0.02316 0.4946 l -0.08321 0.5841 l -0.1472 0.677 l -0.2151 0.7731 l -0.2869 0.8725 l -0.3624 0.9749 l -0.4416 1.08 l -0.5245 1.188 l -0.6108 1.3 l -0.7006 1.413 l -0.7938 1.529 l -0.8902 1.648 l -0.9898 1.769 l -1.092 1.892 l -1.198 2.017 l -1.307 2.145 l -1.418 2.274 l -1.532 2.404 l -1.648 2.537 l -1.767 2.67 l -1.888 2.805 l -2.011 2.942 l -2.137 3.079 l -2.264 3.217 l -2.393 3.356 l -2.524 3.495 l -2.657 3.635 l -2.79 3.776 l -2.926 3.916 l -3.062 4.057 l -3.199 4.198 l -3.337 4.338 l -3.476 4.478 l -3.616 4.618 l -3.756 4.756 l -3.896 4.895 l -4.037 5.032 l -4.178 5.168 l -4.318 5.303 l -4.458 5.437 l -4.598 5.57 l -4.738 5.7 l -4.877 5.83 l -5.015 5.957 l -5.152 6.082 l -5.288 6.206 l -5.423 6.327 l -5.557 6.446 l -5.689 6.562 l -5.82 6.676 l -5.949 6.787 l -6.076 6.896 l -6.202 7.001 l -6.325 7.104 l -6.446 7.204 l -6.564 7.3 l -6.681 7.393 l -6.794 7.483 l -6.905 7.569 l -7.014 7.652 l -7.119 7.731 l -7.221 7.807 l -7.321 7.879 l -7.417 7.947 l -7.51 8.011 l -7.599 8.071 l -7.685 8.127 l -7.768 8.179 l -7.847 8.226 l -7.922 8.27 l -7.993 8.309 l -8.061 8.345 l -8.125 8.376 l -8.184 8.402 l -8.24 8.424 l -8.292 8.442 l -8.339 8.455 l -8.382 8.464 l -8.421 8.469 l -8.456 8.469 l -8.487 8.465 l -8.513 8.456 l -8.535 8.443 l -8.552 8.426 l -8.565 8.404 l -8.574 8.378 l -8.578 8.347 l -8.578 8.313 l -8.573 8.274 l -8.564 8.23 l -8.551 8.183 l -8.533 8.131 l -8.511 8.075 l -8.484 8.016 l -8.454 7.952 l -8.418 7.884 l -8.379 7.813 l -8.335 7.738 l -8.288 7.659 l -8.236 7.576 l -8.18 7.49 l -8.119 7.401 l -8.055 7.308 l -7.988 7.212 l -7.916 7.112 l -7.84 7.01 l -7.761 6.905 l -7.678 6.796 l -7.592 6.685 l -7.502 6.572 l -7.409 6.455 l -7.313 6.337 l -7.213 6.216 l -7.11 6.093 l -7.005 5.967 l -6.896 5.84 l -6.785 5.711 l -6.671 5.581 l -6.555 5.448 l -6.436 5.315 l -6.315 5.18 l -6.191 5.043 l -6.066 4.906 l -5.938 4.768 l -5.809 4.629 l -5.678 4.49 l -5.546 4.35 l -5.412 4.209 l -5.277 4.069 l -5.141 3.928 l -5.004 3.787 l -4.865 3.647 l -4.726 3.507 l -1.952 1.422 l -1.812 1.283 l -1.671 1.145 l -1.531 1.008 l -1.39 0.8713 l -1.25 0.7361 l -1.109 0.6023 l -0.9692 0.4699 l -0.8297 0.3391 l -0.6908 0.2099 l -0.5527 0.08258 l -0.4154 -0.04283 l -0.2793 -0.1662 l -0.1442 -0.2873 l -0.01053 -0.4062 l 0.1217 -0.5226 l 0.2525 -0.6365 l 0.3815 -0.7478 l 0.5086 -0.8563 l 0.6339 -0.9619 l 0.7571 -1.065 l 0.878 -1.164 l 0.9967 -1.261 l 1.113 -1.354 l 1.227 -1.443 l 1.338 -1.53 l 1.446 -1.613 l 1.551 -1.692 l 1.654 -1.767 l 1.753 -1.839 l 1.849 -1.907 l 1.942 -1.971 l 2.032 -2.031 l 2.118 -2.087 l 2.2 -2.139 l 2.279 -2.187 l 2.354 -2.231 l 2.426 -2.27 l 2.493 -2.305 l 2.557 -2.336 l 2.617 -2.363 l 2.672 -2.385 l 2.724 -2.403 l 2.771 -2.416 l 2.815 -2.425 l 2.854 -2.43 l 2.889 -2.43 l 2.919 -2.426 l 2.945 -2.417 l 2.967 -2.404 l 2.985 -2.386 l 2.998 -2.365 l 3.006 -2.338 l 3.01 -2.308 l 3.01 -2.273 l 3.006 -2.234 l 2.997 -2.191 l 2.983 -2.143 l 2.965 -2.092 l 2.943 -2.036 l 2.917 -1.976 l 2.886 -1.913 l 2.851 -1.845 l 2.811 -1.774 l 2.768 -1.698 l 2.72 -1.619 l 2.668 -1.537 l 2.612 -1.451 l 2.552 -1.361 l 2.488 -1.268 l 2.42 -1.172 l 2.348 -1.073 l 2.273 -0.9706 l 2.193 -0.8652 l 2.111 -0.7569 l 2.024 -0.6459 l 1.934 -0.5322 l 1.841 -0.416 l 1.745 -0.2973 l 1.645 -0.1764 l 1.543 -0.05319 l 1.437 0.07205 l 1.328 0.1992 l 1.217 0.3282 l 1.103 0.459 l 0.9869 0.5912 l 0.868 0.7249 l 0.7469 0.86 l 0.6235 0.9961 l 0.4981 1.133 l 0.3708 1.271 l 0.2416 1.41 l 0.1108 1.55 l -0.02162 1.69 l -0.1554 1.83 l -0.2906 1.971 l -0.4268 2.112 l -0.5641 2.252 l -0.7023 2.392 l -0.8413 2.533 l -0.2695 3.456 l -0.4095 3.595 l -0.5499 3.733 l -0.6905 3.871 l -0.8311 4.007 l -0.9717 4.142 l -1.112 4.276 l -1.252 4.408 l -1.392 4.539 l -1.53 4.668 l -1.669 4.795 l -1.806 4.921 l -1.942 5.044 l -2.077 5.165 l -2.211 5.284 l -2.343 5.401 l -2.474 5.515 l -2.603 5.626 l -2.73 5.734 l -2.855 5.84 l -2.978 5.943 l -3.099 6.042 l -3.218 6.139 l -3.334 6.232 l -3.448 6.322 l -3.559 6.408 l -3.667 6.491 l -3.773 6.57 l -3.875 6.645 l -3.974 6.717 l -4.07 6.785 l -4.163 6.849 l -4.253 6.909 l -4.339 6.965 l -4.421 7.017 l -4.5 7.065 l -4.576 7.109 l -4.647 7.148 l -4.715 7.183 l -4.778 7.214 l -4.838 7.241 l -4.894 7.263 l -4.945 7.281 l -4.993 7.294 l -5.036 7.303 l -5.075 7.308 l -5.11 7.308 l -5.14 7.304 l -5.167 7.295 l -5.188 7.282 l -5.206 7.264 l -5.219 7.243 l -5.228 7.216 l -5.232 7.186 l -5.232 7.151 l -5.227 7.112 l -5.218 7.069 l -5.205 7.021 l -5.187 6.97 l -5.165 6.914 l -5.138 6.854 l -5.107 6.791 l -5.072 6.723 l -5.033 6.652 l -4.989 6.576 l -4.941 6.497 l -4.889 6.415 l -4.833 6.329 l -4.773 6.239 l -4.709 6.146 l -4.641 6.05 l -4.569 5.951 l -4.494 5.849 l -4.415 5.743 l -4.332 5.635 l -4.245 5.524 l -4.156 5.41 l -4.063 5.294 l -3.966 5.175 l -3.867 5.054 l -3.764 4.931 l -3.658 4.806 l -3.55 4.679 l -3.438 4.55 l -3.325 4.419 l -3.208 4.287 l -3.089 4.153 l -2.968 4.018 l -2.845 3.882 l -2.719 3.745 l -2.592 3.607 l -2.463 3.468 l -2.332 3.328 l -2.2 3.188 l -2.066 3.048 l -1.931 2.907 l -1.794 2.767 l -1.657 2.626 l -1.519 2.486 l -1.38 2.346 l -0.4564 1.451 l -0.3164 1.312 l -0.176 1.174 l -0.03539 1.037 l 0.1053 0.9003 l 0.2458 0.7652 l 0.3862 0.6313 l 0.5262 0.4989 l 0.6657 0.3681 l 0.8046 0.2389 l 0.9428 0.1116 l 1.08 -0.0138 l 1.216 -0.1371 l 1.351 -0.2583 l 1.485 -0.3772 l 1.617 -0.4936 l 1.748 -0.6075 l 1.877 -0.7187 l 2.004 -0.8272 l 2.129 -0.9329 l 2.252 -1.036 l 2.373 -1.135 l 2.492 -1.232 l 2.608 -1.325 l 2.722 -1.414 l 2.833 -1.501 l 2.941 -1.584 l 3.047 -1.663 l 3.149 -1.738 l 3.248 -1.81 l 3.345 -1.878 l 3.437 -1.942 l 3.527 -2.002 l 3.613 -2.058 l 3.696 -2.11 l 3.774 -2.158 l 3.85 -2.202 l 3.921 -2.241 l 3.989 -2.276 l 4.052 -2.307 l 4.112 -2.334 l 4.168 -2.356 l 4.219 -2.374 l 4.267 -2.387 l 4.31 -2.396 l 4.349 -2.401 l 4.384 -2.401 l 4.415 -2.397 l 4.441 -2.388 l 4.463 -2.375 l 4.48 -2.357 l 4.493 -2.336 l 4.502 -2.309 l 4.506 -2.279 l 4.506 -2.244 l 4.501 -2.205 l 4.492 -2.162 l 4.479 -2.114 l 4.461 -2.063 l 4.439 -2.007 l 4.412 -1.947 l 4.381 -1.884 l 4.346 -1.816 l 4.307 -1.744 l 4.263 -1.669 l 4.215 -1.59 l 4.163 -1.508 l 4.107 -1.422 l 4.047 -1.332 l 3.983 -1.239 l 3.915 -1.143 l 3.844 -1.044 l 3.768 -0.9415 l 3.689 -0.8361 l 3.606 -0.7279 l 3.52 -0.6169 l 3.43 -0.5032 l 3.337 -0.387 l 3.24 -0.2683 l 3.141 -0.1473 l 3.038 -0.02416 l 2.932 0.1011 l 2.824 0.2283 l 2.713 0.3573 l 2.599 0.488 l 2.482 0.6203 l 2.363 0.754 l 2.242 0.889 l 2.119 1.025 l 1.994 1.162 l 1.866 1.301 l 1.737 1.439 l 1.606 1.579 l 1.474 1.719 l 1.34 1.859 l 1.205 2.0 l 1.069 2.141 l 0.9313 2.281 l 0.7931 2.422 l 0.6541 2.562 l 1.226 3.093 l 1.086 3.232 l 0.9455 3.37 l 0.8049 3.508 l 0.6642 3.644 l 0.5236 3.779 l 0.3833 3.913 l 0.2433 4.045 l 0.1037 4.176 l -0.03515 4.305 l -0.1733 4.433 l -0.3105 4.558 l -0.4467 4.681 l -0.5817 4.802 l -0.7154 4.921 l -0.8477 5.038 l -0.9784 5.152 l -1.107 5.263 l -1.235 5.371 l -1.36 5.477 l -1.483 5.58 l -1.604 5.679 l -1.723 5.776 l -1.839 5.869 l -1.953 5.959 l -2.064 6.045 l -2.172 6.128 l -2.277 6.207 l -2.38 6.282 l -2.479 6.354 l -2.575 6.422 l -2.668 6.486 l -2.757 6.546 l -2.844 6.602 l -2.926 6.654 l -3.005 6.702 l -3.08 6.746 l -3.152 6.785 l -3.219 6.82 l -3.283 6.851 l -3.343 6.878 l -3.398 6.9 l -3.45 6.918 l -3.497 6.931 l -3.541 6.94 l -3.58 6.945 l -3.615 6.945 l -3.645 6.941 l -3.671 6.932 l -3.693 6.919 l -3.71 6.901 l -3.724 6.88 l -3.732 6.853 l -3.736 6.823 l -3.736 6.788 l -3.732 6.749 l -3.723 6.706 l -3.709 6.658 l -3.691 6.607 l -3.669 6.551 l -3.643 6.491 l -3.612 6.428 l -3.577 6.36 l -3.537 6.289 l -3.494 6.213 l -3.446 6.135 l -3.394 6.052 l -3.338 5.966 l -3.278 5.876 l -3.214 5.784 l -3.146 5.687 l -3.074 5.588 l -2.999 5.486 l -2.919 5.38 l -2.836 5.272 l -2.75 5.161 l -2.66 5.047 l -2.567 4.931 l -2.471 4.812 l -2.371 4.691 l -2.269 4.568 l -2.163 4.443 l -2.054 4.316 l -1.943 4.187 l -1.829 4.056 l -1.713 3.924 l -1.594 3.79 l -1.473 3.655 l -1.349 3.519 l -1.224 3.382 l -1.097 3.244 l -0.9676 3.105 l -0.8367 2.965 l -0.7043 2.825 l -0.5705 2.685 l -0.4354 2.544 l -0.2991 2.404 l -0.1618 2.263 l -0.0236 2.123 l 0.1153 1.983 l 1.141 1.248 l 1.281 1.109 l 1.421 0.9706 l 1.562 0.8333 l 1.702 0.6971 l 1.843 0.5619 l 1.983 0.4281 l 2.123 0.2957 l 2.263 0.1649 l 2.402 0.03571 l 2.54 -0.09163 l 2.677 -0.217 l 2.813 -0.3404 l 2.948 -0.4615 l 3.082 -0.5804 l 3.214 -0.6968 l 3.345 -0.8107 l 3.474 -0.922 l 3.601 -1.03 l 3.726 -1.136 l 3.849 -1.239 l 3.97 -1.338 l 4.089 -1.435 l 4.205 -1.528 l 4.319 -1.618 l 4.43 -1.704 l 4.538 -1.787 l 4.644 -1.866 l 4.746 -1.942 l 4.845 -2.013 l 4.941 -2.081 l 5.034 -2.145 l 5.124 -2.205 l 5.21 -2.261 l 5.292 -2.313 l 5.371 -2.361 l 5.447 -2.405 l 5.518 -2.444 l 5.586 -2.479 l 5.649 -2.51 l 5.709 -2.537 l 5.765 -2.559 l 5.816 -2.577 l 5.864 -2.59 l 5.907 -2.599 l 5.946 -2.604 l 5.981 -2.604 l 6.011 -2.6 l 6.038 -2.591 l 6.059 -2.578 l 6.077 -2.561 l 6.09 -2.539 l 6.099 -2.513 l 6.103 -2.482 l 6.103 -2.447 l 6.098 -2.408 l 6.089 -2.365 l 6.076 -2.317 l 6.058 -2.266 l 6.036 -2.21 l 6.009 -2.15 l 5.978 -2.087 l 5.943 -2.019 l 5.904 -1.948 l 5.86 -1.873 l 5.812 -1.794 l 5.76 -1.711 l 5.704 -1.625 l 5.644 -1.536 l 5.58 -1.443 l 5.512 -1.346 l 5.44 -1.247 l 5.365 -1.145 l 5.286 -1.039 l 5.203 -0.9311 l 5.117 -0.8201 l 5.027 -0.7064 l 4.934 -0.5902 l 4.837 -0.4715 l 4.738 -0.3506 l 4.635 -0.2274 l 4.529 -0.1022 l 4.421 0.02503 l 4.31 0.154 l 4.196 0.2847 l 4.079 0.417 l 3.96 0.5507 l 3.839 0.6857 l 3.716 0.8219 l 3.59 0.9592 l 3.463 1.097 l 3.334 1.236 l 3.203 1.376 l 3.071 1.516 l 2.937 1.656 l 2.802 1.797 l 2.666 1.937 l 2.528 2.078 l 2.39 2.218 l 2.251 2.358 l 1.807 1.424 l 1.667 1.562 l 1.526 1.701 l 1.386 1.838 l 1.245 1.974 l 1.104 2.109 l 0.964 2.243 l 0.824 2.376 l 0.6845 2.506 l 0.5456 2.636 l 0.4074 2.763 l 0.2702 2.888 l 0.134 3.012 l -0.0009785 3.133 l -0.1347 3.252 l -0.267 3.368 l -0.3977 3.482 l -0.5267 3.593 l -0.6539 3.702 l -0.7791 3.807 l -0.9023 3.91 l -1.023 4.01 l -1.142 4.106 l -1.258 4.199 l -1.372 4.289 l -1.483 4.375 l -1.591 4.458 l -1.696 4.537 l -1.799 4.613 l -1.898 4.685 l -1.994 4.753 l -2.087 4.817 l -2.177 4.877 l -2.263 4.933 l -2.345 4.985 l -2.424 5.032 l -2.499 5.076 l -2.571 5.116 l -2.638 5.151 l -2.702 5.182 l -2.762 5.208 l -2.818 5.23 l -2.869 5.248 l -2.917 5.261 l -2.96 5.271 l -2.999 5.275 l -3.034 5.275 l -3.064 5.271 l -3.09 5.262 l -3.112 5.249 l -3.13 5.232 l -3.143 5.21 l -3.151 5.184 l -3.156 5.153 l -3.156 5.119 l -3.151 5.08 l -3.142 5.036 l -3.128 4.989 l -3.111 4.937 l -3.088 4.882 l -3.062 4.822 l -3.031 4.758 l -2.996 4.69 l -2.957 4.619 l -2.913 4.544 l -2.865 4.465 l -2.813 4.382 l -2.757 4.296 l -2.697 4.207 l -2.633 4.114 l -2.565 4.018 l -2.493 3.918 l -2.418 3.816 l -2.339 3.711 l -2.256 3.602 l -2.169 3.491 l -2.08 3.378 l -1.986 3.262 l -1.89 3.143 l -1.79 3.022 l -1.688 2.899 l -1.582 2.773 l -1.474 2.646 l -1.362 2.517 l -1.249 2.387 l -1.132 2.254 l -1.013 2.121 l -0.8921 1.986 l -0.7687 1.849 l -0.6433 1.712 l -0.516 1.574 l -0.3868 1.435 l -0.256 1.296 l -0.1236 1.156 l 0.01022 1.015 l 0.1453 0.8747 l 0.2816 0.734 l 0.4189 0.5934 l 0.5571 0.453 l 0.6961 0.313 l 1.213 -0.2476 l 1.353 -0.3865 l 1.494 -0.5247 l 1.634 -0.662 l 1.775 -0.7983 l 1.915 -0.9334 l 2.056 -1.067 l 2.196 -1.2 l 2.335 -1.331 l 2.474 -1.46 l 2.612 -1.587 l 2.75 -1.712 l 2.886 -1.836 l 3.021 -1.957 l 3.154 -2.076 l 3.287 -2.192 l 3.417 -2.306 l 3.546 -2.417 l 3.674 -2.526 l 3.799 -2.631 l 3.922 -2.734 l 4.043 -2.834 l 4.162 -2.93 l 4.278 -3.023 l 4.392 -3.113 l 4.503 -3.199 l 4.611 -3.282 l 4.716 -3.361 l 4.819 -3.437 l 4.918 -3.509 l 5.014 -3.577 l 5.107 -3.641 l 5.196 -3.701 l 5.283 -3.757 l 5.365 -3.809 l 5.444 -3.857 l 5.519 -3.9 l 5.591 -3.94 l 5.658 -3.975 l 5.722 -4.006 l 5.782 -4.032 l 5.837 -4.054 l 5.889 -4.072 l 5.936 -4.086 l 5.98 -4.095 l 6.019 -4.099 l 6.054 -4.099 l 6.084 -4.095 l 6.11 -4.086 l 6.132 -4.073 l 6.15 -4.056 l 6.163 -4.034 l 6.171 -4.008 l 6.175 -3.977 l 6.175 -3.943 l 6.171 -3.904 l 6.162 -3.86 l 6.148 -3.813 l 6.13 -3.761 l 6.108 -3.706 l 6.082 -3.646 l 6.051 -3.582 l 6.016 -3.515 l 5.976 -3.443 l 5.933 -3.368 l 5.885 -3.289 l 5.833 -3.206 l 5.777 -3.12 l 5.717 -3.031 l 5.653 -2.938 l 5.585 -2.842 l 5.513 -2.743 l 5.438 -2.64 l 5.358 -2.535 l 5.276 -2.426 l 5.189 -2.315 l 5.099 -2.202 l 5.006 -2.086 l 4.91 -1.967 l 4.81 -1.846 l 4.708 -1.723 l 4.602 -1.598 l 4.493 -1.47 l 4.382 -1.341 l 4.268 -1.211 l 4.152 -1.078 l 4.033 -0.9446 l 3.912 -0.8096 l 3.788 -0.6734 l 3.663 -0.5362 l 3.536 -0.3981 l 3.407 -0.2592 l 3.276 -0.1197 l 3.143 0.02034 l 3.01 0.1607 l 2.874 0.3013 l 2.738 0.4419 l 2.601 0.5825 l 2.463 0.7229 l 2.324 0.8629 l 2.141 0.3057 l 2.0 0.4446 l 1.86 0.5828 l 1.72 0.7201 l 1.579 0.8564 l 1.438 0.9915 l 1.298 1.125 l 1.158 1.258 l 1.018 1.389 l 0.8795 1.518 l 0.7414 1.645 l 0.6042 1.77 l 0.468 1.894 l 0.333 2.015 l 0.1992 2.134 l 0.06697 2.25 l -0.06374 2.364 l -0.1928 2.475 l -0.3199 2.584 l -0.4452 2.69 l -0.5683 2.792 l -0.6893 2.892 l -0.808 2.988 l -0.9242 3.081 l -1.038 3.171 l -1.149 3.257 l -1.257 3.34 l -1.363 3.42 l -1.465 3.495 l -1.564 3.567 l -1.66 3.635 l -1.753 3.699 l -1.843 3.759 l -1.929 3.815 l -2.011 3.867 l -2.09 3.915 l -2.166 3.958 l -2.237 3.998 l -2.305 4.033 l -2.368 4.064 l -2.428 4.09 l -2.484 4.112 l -2.535 4.13 l -2.583 4.144 l -2.626 4.153 l -2.665 4.157 l -2.7 4.157 l -2.73 4.153 l -2.757 4.145 l -2.778 4.131 l -2.796 4.114 l -2.809 4.092 l -2.818 4.066 l -2.822 4.036 l -2.822 4.001 l -2.817 3.962 l -2.808 3.918 l -2.795 3.871 l -2.777 3.819 l -2.755 3.764 l -2.728 3.704 l -2.697 3.64 l -2.662 3.573 l -2.623 3.501 l -2.579 3.426 l -2.531 3.347 l -2.479 3.265 l -2.423 3.178 l -2.363 3.089 l -2.299 2.996 l -2.231 2.9 l -2.159 2.801 l -2.084 2.698 l -2.005 2.593 l -1.922 2.485 l -1.835 2.374 l -1.746 2.26 l -1.653 2.144 l -1.556 2.025 l -1.457 1.904 l -1.354 1.781 l -1.248 1.656 l -1.14 1.528 l -1.029 1.399 l -0.9146 1.269 l -0.7982 1.136 l -0.6793 1.003 l -0.5582 0.8677 l -0.4348 0.7315 l -0.3094 0.5943 l -0.1821 0.4562 l -0.05291 0.3173 l 0.07793 0.1777 l 0.2103 0.03773 l 0.3442 -0.1026 l 0.4793 -0.2432 l 0.6155 -0.3839 l 0.7529 -0.5244 l 0.891 -0.6648 l 1.03 -0.8049 l 0.676 -1.482 l 0.816 -1.621 l 0.9564 -1.759 l 1.097 -1.896 l 1.238 -2.032 l 1.378 -2.167 l 1.519 -2.301 l 1.659 -2.434 l 1.798 -2.565 l 1.937 -2.694 l 2.075 -2.821 l 2.212 -2.946 l 2.349 -3.07 l 2.484 -3.191 l 2.617 -3.31 l 2.75 -3.426 l 2.88 -3.54 l 3.009 -3.651 l 3.136 -3.76 l 3.262 -3.865 l 3.385 -3.968 l 3.506 -4.068 l 3.624 -4.164 l 3.741 -4.257 l 3.854 -4.347 l 3.965 -4.433 l 4.074 -4.516 l 4.179 -4.595 l 4.281 -4.671 l 4.381 -4.743 l 4.477 -4.811 l 4.57 -4.875 l 4.659 -4.935 l 4.745 -4.991 l 4.828 -5.043 l 4.907 -5.091 l 4.982 -5.134 l 5.053 -5.174 l 5.121 -5.209 l 5.185 -5.24 l 5.244 -5.266 l 5.3 -5.288 l 5.352 -5.306 l 5.399 -5.32 l 5.443 -5.329 l 5.482 -5.333 l 5.516 -5.333 l 5.547 -5.329 l 5.573 -5.32 l 5.595 -5.307 l 5.612 -5.29 l 5.625 -5.268 l 5.634 -5.242 l 5.638 -5.211 l 5.638 -5.177 l 5.633 -5.138 l 5.624 -5.094 l 5.611 -5.047 l 5.593 -4.995 l 5.571 -4.94 l 5.544 -4.88 l 5.514 -4.816 l 5.478 -4.749 l 5.439 -4.677 l 5.395 -4.602 l 5.348 -4.523 l 5.296 -4.44 l 5.24 -4.354 l 5.18 -4.265 l 5.116 -4.172 l 5.048 -4.076 l 4.976 -3.977 l 4.9 -3.874 l 4.821 -3.769 l 4.738 -3.661 l 4.652 -3.549 l 4.562 -3.436 l 4.469 -3.32 l 4.373 -3.201 l 4.273 -3.08 l 4.17 -2.957 l 4.065 -2.832 l 3.956 -2.704 l 3.845 -2.575 l 3.731 -2.445 l 3.615 -2.312 l 3.496 -2.179 l 3.375 -2.044 l 3.251 -1.907 l 3.126 -1.77 l 2.999 -1.632 l 2.869 -1.493 l 2.739 -1.354 l 2.606 -1.214 l 2.472 -1.073 l 2.337 -0.9327 l 2.201 -0.7921 l 2.064 -0.6515 l 1.925 -0.5111 l 1.786 -0.3711 l 1.298 0.1605 l 1.158 0.2994 l 1.018 0.4376 l 0.8775 0.5749 l 0.7368 0.7112 l 0.5962 0.8463 l 0.4559 0.9801 l 0.3159 1.113 l 0.1764 1.243 l 0.03746 1.373 l -0.1007 1.5 l -0.2379 1.625 l -0.3741 1.749 l -0.5091 1.87 l -0.6428 1.989 l -0.7751 2.105 l -0.9058 2.219 l -1.035 2.33 l -1.162 2.439 l -1.287 2.544 l -1.41 2.647 l -1.531 2.747 l -1.65 2.843 l -1.766 2.936 l -1.88 3.026 l -1.991 3.112 l -2.099 3.195 l -2.205 3.274 l -2.307 3.35 l -2.406 3.422 l -2.502 3.49 l -2.595 3.554 l -2.685 3.614 l -2.771 3.67 l -2.853 3.722 l -2.932 3.769 l -3.008 3.813 l -3.079 3.852 l -3.147 3.888 l -3.21 3.918 l -3.27 3.945 l -3.326 3.967 l -3.377 3.985 l -3.425 3.998 l -3.468 4.007 l -3.507 4.012 l -3.542 4.012 l -3.572 4.008 l -3.599 3.999 l -3.62 3.986 l -3.638 3.969 l -3.651 3.947 l -3.66 3.921 l -3.664 3.89 l -3.664 3.856 l -3.659 3.816 l -3.65 3.773 l -3.637 3.726 l -3.619 3.674 l -3.597 3.618 l -3.57 3.559 l -3.539 3.495 l -3.504 3.427 l -3.465 3.356 l -3.421 3.281 l -3.373 3.202 l -3.321 3.119 l -3.265 3.033 l -3.205 2.944 l -3.141 2.851 l -3.073 2.755 l -3.001 2.655 l -2.926 2.553 l -2.847 2.448 l -2.764 2.339 l -2.678 2.228 l -2.588 2.115 l -2.495 1.998 l -2.398 1.88 l -2.299 1.759 l -2.196 1.636 l -2.09 1.51 l -1.982 1.383 l -1.871 1.254 l -1.757 1.124 l -1.64 0.9912 l -1.521 0.8575 l -1.4 0.7225 l -1.277 0.5863 l -1.151 0.4491 l -1.024 0.311 l -0.895 0.1721 l -0.7641 0.03255 l -0.6317 -0.1075 l -0.4979 -0.2478 l -0.3628 -0.3884 l -0.2265 -0.529 l -0.08919 -0.6696 l 0.04901 -0.81 l 0.188 -0.9501 l 0.8937 -0.7267 l 1.034 -0.8656 l 1.174 -1.004 l 1.315 -1.141 l 1.455 -1.277 l 1.596 -1.413 l 1.736 -1.546 l 1.876 -1.679 l 2.016 -1.81 l 2.155 -1.939 l 2.293 -2.066 l 2.43 -2.191 l 2.566 -2.315 l 2.701 -2.436 l 2.835 -2.555 l 2.967 -2.671 l 3.098 -2.785 l 3.227 -2.896 l 3.354 -3.005 l 3.479 -3.111 l 3.603 -3.213 l 3.724 -3.313 l 3.842 -3.409 l 3.958 -3.502 l 4.072 -3.592 l 4.183 -3.679 l 4.291 -3.761 l 4.397 -3.841 l 4.499 -3.916 l 4.599 -3.988 l 4.695 -4.056 l 4.788 -4.12 l 4.877 -4.18 l 4.963 -4.236 l 5.046 -4.288 l 5.125 -4.336 l 5.2 -4.379 l 5.271 -4.419 l 5.339 -4.454 l 5.403 -4.485 l 5.462 -4.511 l 5.518 -4.533 l 5.57 -4.551 l 5.617 -4.565 l 5.66 -4.574 l 5.699 -4.578 l 5.734 -4.578 l 5.765 -4.574 l 5.791 -4.566 l 5.813 -4.553 l 5.83 -4.535 l 5.843 -4.513 l 5.852 -4.487 l 5.856 -4.457 l 5.856 -4.422 l 5.851 -4.383 l 5.842 -4.339 l 5.829 -4.292 l 5.811 -4.24 l 5.789 -4.185 l 5.762 -4.125 l 5.731 -4.061 l 5.696 -3.994 l 5.657 -3.922 l 5.613 -3.847 l 5.565 -3.768 l 5.513 -3.686 l 5.457 -3.599 l 5.397 -3.51 l 5.333 -3.417 l 5.265 -3.321 l 5.194 -3.222 l 5.118 -3.119 l 5.039 -3.014 l 4.956 -2.906 l 4.87 -2.795 l 4.78 -2.681 l 4.687 -2.565 l 4.59 -2.446 l 4.491 -2.325 l 4.388 -2.202 l 4.283 -2.077 l 4.174 -1.949 l 4.063 -1.82 l 3.949 -1.69 l 3.832 -1.557 l 3.714 -1.424 l 3.592 -1.289 l 3.469 -1.153 l 3.344 -1.015 l 3.216 -0.8772 l 3.087 -0.7383 l 2.956 -0.5988 l 2.824 -0.4588 l 2.69 -0.3184 l 2.555 -0.1778 l 2.419 -0.03716 l 2.281 0.1034 l 2.143 0.2438 l 2.004 0.3839 l 1.865 0.7267 l 1.725 0.8656 l 1.584 1.004 l 1.444 1.141 l 1.303 1.277 l 1.162 1.413 l 1.022 1.546 l 0.8821 1.679 l 0.7425 1.81 l 0.6036 1.939 l 0.4655 2.066 l 0.3283 2.191 l 0.1921 2.315 l 0.05709 2.436 l -0.07662 2.555 l -0.2089 2.671 l -0.3396 2.785 l -0.4686 2.896 l -0.5958 3.005 l -0.721 3.111 l -0.8442 3.213 l -0.9652 3.313 l -1.084 3.409 l -1.2 3.502 l -1.314 3.592 l -1.425 3.679 l -1.533 3.761 l -1.638 3.841 l -1.741 3.916 l -1.84 3.988 l -1.936 4.056 l -2.029 4.12 l -2.119 4.18 l -2.205 4.236 l -2.287 4.288 l -2.366 4.336 l -2.441 4.379 l -2.513 4.419 l -2.58 4.454 l -2.644 4.485 l -2.704 4.511 l -2.76 4.533 l -2.811 4.551 l -2.859 4.565 l -2.902 4.574 l -2.941 4.578 l -2.976 4.578 l -3.006 4.574 l -3.032 4.566 l -3.054 4.553 l -3.072 4.535 l -3.085 4.513 l -3.093 4.487 l -3.098 4.457 l -3.097 4.422 l -3.093 4.383 l -3.084 4.339 l -3.07 4.292 l -3.053 4.24 l -3.03 4.185 l -3.004 4.125 l -2.973 4.061 l -2.938 3.994 l -2.898 3.922 l -2.855 3.847 l -2.807 3.768 l -2.755 3.686 l -2.699 3.599 l -2.639 3.51 l -2.575 3.417 l -2.507 3.321 l -2.435 3.222 l -2.36 3.119 l -2.281 3.014 l -2.198 2.906 l -2.111 2.795 l -2.022 2.681 l -1.928 2.565 l -1.832 2.446 l -1.732 2.325 l -1.63 2.202 l -1.524 2.077 l -1.416 1.949 l -1.304 1.82 l -1.19 1.69 l -1.074 1.557 l -0.9552 1.424 l -0.834 1.289 l -0.7107 1.153 l -0.5853 1.015 l -0.4579 0.8772 l -0.3288 0.7383 l -0.1979 0.5988 l -0.06553 0.4588 l 0.06829 0.3184 l 0.2034 0.1778 l 0.3397 0.03716 l 0.477 -0.1034 l 0.6152 -0.2438 l 0.7541 -0.3839 l 0.3275 -0.1605 l 0.4676 -0.2994 l 0.608 -0.4376 l 0.7485 -0.5749 l 0.8892 -0.7112 l 1.03 -0.8463 l 1.17 -0.9801 l 1.31 -1.113 l 1.45 -1.243 l 1.589 -1.373 l 1.727 -1.5 l 1.864 -1.625 l 2.0 -1.749 l 2.135 -1.87 l 2.269 -1.989 l 2.401 -2.105 l 2.532 -2.219 l 2.661 -2.33 l 2.788 -2.439 l 2.913 -2.544 l 3.036 -2.647 l 3.157 -2.747 l 3.276 -2.843 l 3.392 -2.936 l 3.506 -3.026 l 3.617 -3.112 l 3.725 -3.195 l 3.831 -3.274 l 3.933 -3.35 l 4.032 -3.422 l 4.128 -3.49 l 4.221 -3.554 l 4.311 -3.614 l 4.397 -3.67 l 4.479 -3.722 l 4.558 -3.769 l 4.634 -3.813 l 4.705 -3.852 l 4.773 -3.888 l 4.836 -3.918 l 4.896 -3.945 l 4.952 -3.967 l 5.003 -3.985 l 5.051 -3.998 l 5.094 -4.007 l 5.133 -4.012 l 5.168 -4.012 l 5.198 -4.008 l 5.225 -3.999 l 5.246 -3.986 l 5.264 -3.969 l 5.277 -3.947 l 5.286 -3.921 l 5.29 -3.89 l 5.29 -3.856 l 5.285 -3.816 l 5.276 -3.773 l 5.263 -3.726 l 5.245 -3.674 l 5.223 -3.618 l 5.196 -3.559 l 5.165 -3.495 l 5.13 -3.427 l 5.091 -3.356 l 5.047 -3.281 l 4.999 -3.202 l 4.947 -3.119 l 4.891 -3.033 l 4.831 -2.944 l 4.767 -2.851 l 4.699 -2.755 l 4.627 -2.655 l 4.552 -2.553 l 4.473 -2.448 l 4.39 -2.339 l 4.304 -2.228 l 4.214 -2.115 l 4.121 -1.998 l 4.024 -1.88 l 3.925 -1.759 l 3.822 -1.636 l 3.716 -1.51 l 3.608 -1.383 l 3.497 -1.254 l 3.383 -1.124 l 3.266 -0.9912 l 3.147 -0.8575 l 3.026 -0.7225 l 2.903 -0.5863 l 2.777 -0.4491 l 2.65 -0.311 l 2.521 -0.1721 l 2.39 -0.03255 l 2.258 0.1075 l 2.124 0.2478 l 1.989 0.3884 l 1.853 0.529 l 1.715 0.6696 l 1.577 0.81 l 1.438 0.9501 l 1.647 1.482 l 1.507 1.621 l 1.366 1.759 l 1.226 1.896 l 1.085 2.032 l 0.9447 2.167 l 0.8043 2.301 l 0.6643 2.434 l 0.5248 2.565 l 0.3859 2.694 l 0.2478 2.821 l 0.1105 2.946 l -0.02564 3.07 l -0.1607 3.191 l -0.2944 3.31 l -0.4266 3.426 l -0.5574 3.54 l -0.6864 3.651 l -0.8135 3.76 l -0.9388 3.865 l -1.062 3.968 l -1.183 4.068 l -1.302 4.164 l -1.418 4.257 l -1.531 4.347 l -1.643 4.433 l -1.751 4.516 l -1.856 4.595 l -1.959 4.671 l -2.058 4.743 l -2.154 4.811 l -2.247 4.875 l -2.336 4.935 l -2.422 4.991 l -2.505 5.043 l -2.584 5.091 l -2.659 5.134 l -2.731 5.174 l -2.798 5.209 l -2.862 5.24 l -2.922 5.266 l -2.977 5.288 l -3.029 5.306 l -3.076 5.32 l -3.12 5.329 l -3.159 5.333 l -3.193 5.333 l -3.224 5.329 l -3.25 5.32 l -3.272 5.307 l -3.289 5.29 l -3.302 5.268 l -3.311 5.242 l -3.315 5.211 l -3.315 5.177 l -3.311 5.138 l -3.302 5.094 l -3.288 5.047 l -3.27 4.995 l -3.248 4.94 l -3.222 4.88 l -3.191 4.816 l -3.156 4.749 l -3.116 4.677 l -3.073 4.602 l -3.025 4.523 l -2.973 4.44 l -2.917 4.354 l -2.857 4.265 l -2.793 4.172 l -2.725 4.076 l -2.653 3.977 l -2.577 3.874 l -2.498 3.769 l -2.415 3.661 l -2.329 3.549 l -2.239 3.436 l -2.146 3.32 l -2.05 3.201 l -1.95 3.08 l -1.847 2.957 l -1.742 2.832 l -1.633 2.704 l -1.522 2.575 l -1.408 2.445 l -1.292 2.312 l -1.173 2.179 l -1.052 2.044 l -0.9284 1.907 l -0.803 1.77 l -0.6757 1.632 l -0.5465 1.493 l -0.4157 1.354 l -0.2833 1.214 l -0.1495 1.073 l -0.01434 0.9327 l 0.1219 0.7921 l 0.2592 0.6515 l 0.3974 0.5111 l 0.5364 0.3711 l 1.17 -0.3057 l 1.31 -0.4446 l 1.45 -0.5828 l 1.591 -0.7201 l 1.731 -0.8564 l 1.872 -0.9915 l 2.012 -1.125 l 2.152 -1.258 l 2.292 -1.389 l 2.431 -1.518 l 2.569 -1.645 l 2.706 -1.77 l 2.842 -1.894 l 2.977 -2.015 l 3.111 -2.134 l 3.243 -2.25 l 3.374 -2.364 l 3.503 -2.475 l 3.63 -2.584 l 3.755 -2.69 l 3.878 -2.792 l 3.999 -2.892 l 4.118 -2.988 l 4.234 -3.081 l 4.348 -3.171 l 4.459 -3.257 l 4.567 -3.34 l 4.673 -3.42 l 4.775 -3.495 l 4.874 -3.567 l 4.971 -3.635 l 5.063 -3.699 l 5.153 -3.759 l 5.239 -3.815 l 5.321 -3.867 l 5.4 -3.915 l 5.476 -3.958 l 5.547 -3.998 l 5.615 -4.033 l 5.678 -4.064 l 5.738 -4.09 l 5.794 -4.112 l 5.845 -4.13 l 5.893 -4.144 l 5.936 -4.153 l 5.975 -4.157 l 6.01 -4.157 l 6.04 -4.153 l 6.067 -4.145 l 6.088 -4.131 l 6.106 -4.114 l 6.119 -4.092 l 6.128 -4.066 l 6.132 -4.036 l 6.132 -4.001 l 6.127 -3.962 l 6.118 -3.918 l 6.105 -3.871 l 6.087 -3.819 l 6.065 -3.764 l 6.038 -3.704 l 6.007 -3.64 l 5.972 -3.573 l 5.933 -3.501 l 5.889 -3.426 l 5.841 -3.347 l 5.789 -3.265 l 5.733 -3.178 l 5.673 -3.089 l 5.609 -2.996 l 5.541 -2.9 l 5.469 -2.801 l 5.394 -2.698 l 5.315 -2.593 l 5.232 -2.485 l 5.146 -2.374 l 5.056 -2.26 l 4.963 -2.144 l 4.866 -2.025 l 4.767 -1.904 l 4.664 -1.781 l 4.558 -1.656 l 4.45 -1.528 l 4.339 -1.399 l 4.225 -1.269 l 4.108 -1.136 l 3.989 -1.003 l 3.868 -0.8677 l 3.745 -0.7315 l 3.62 -0.5943 l 3.492 -0.4562 l 3.363 -0.3173 l 3.232 -0.1777 l 3.1 -0.03773 l 2.966 0.1026 l 2.831 0.2432 l 2.695 0.3839 l 2.557 0.5244 l 2.419 0.6648 l 2.28 0.8049 l 2.184 0.2476 l 2.044 0.3865 l 1.904 0.5247 l 1.763 0.662 l 1.622 0.7983 l 1.482 0.9334 l 1.341 1.067 l 1.201 1.2 l 1.062 1.331 l 0.923 1.46 l 0.7849 1.587 l 0.6477 1.712 l 0.5115 1.836 l 0.3765 1.957 l 0.2428 2.076 l 0.1105 2.192 l -0.02021 2.306 l -0.1492 2.417 l -0.2764 2.526 l -0.4016 2.631 l -0.5248 2.734 l -0.6458 2.834 l -0.7644 2.93 l -0.8807 3.023 l -0.9943 3.113 l -1.105 3.199 l -1.214 3.282 l -1.319 3.361 l -1.421 3.437 l -1.521 3.509 l -1.617 3.577 l -1.71 3.641 l -1.799 3.701 l -1.885 3.757 l -1.968 3.809 l -2.047 3.857 l -2.122 3.9 l -2.193 3.94 l -2.261 3.975 l -2.325 4.006 l -2.384 4.032 l -2.44 4.054 l -2.492 4.072 l -2.539 4.086 l -2.582 4.095 l -2.622 4.099 l -2.656 4.099 l -2.687 4.095 l -2.713 4.086 l -2.735 4.073 l -2.752 4.056 l -2.765 4.034 l -2.774 4.008 l -2.778 3.977 l -2.778 3.943 l -2.773 3.904 l -2.764 3.86 l -2.751 3.813 l -2.733 3.761 l -2.711 3.706 l -2.684 3.646 l -2.654 3.582 l -2.618 3.515 l -2.579 3.443 l -2.535 3.368 l -2.488 3.289 l -2.436 3.206 l -2.38 3.12 l -2.32 3.031 l -2.256 2.938 l -2.188 2.842 l -2.116 2.743 l -2.04 2.64 l -1.961 2.535 l -1.878 2.426 l -1.792 2.315 l -1.702 2.202 l -1.609 2.086 l -1.513 1.967 l -1.413 1.846 l -1.31 1.723 l -1.205 1.598 l -1.096 1.47 l -0.985 1.341 l -0.8711 1.211 l -0.7546 1.078 l -0.6358 0.9446 l -0.5146 0.8096 l -0.3913 0.6734 l -0.2659 0.5362 l -0.1385 0.3981 l -0.009384 0.2592 l 0.1215 0.1197 l 0.2539 -0.02034 l 0.3877 -0.1607 l 0.5228 -0.3013 l 0.6591 -0.4419 l 0.7964 -0.5825 l 0.9346 -0.7229 l 1.074 -0.8629 l 0.8357 -1.424 l 0.9757 -1.562 l 1.116 -1.701 l 1.257 -1.838 l 1.397 -1.974 l 1.538 -2.109 l 1.678 -2.243 l 1.818 -2.376 l 1.958 -2.506 l 2.097 -2.636 l 2.235 -2.763 l 2.372 -2.888 l 2.508 -3.012 l 2.643 -3.133 l 2.777 -3.252 l 2.909 -3.368 l 3.04 -3.482 l 3.169 -3.593 l 3.296 -3.702 l 3.421 -3.807 l 3.545 -3.91 l 3.666 -4.01 l 3.784 -4.106 l 3.9 -4.199 l 4.014 -4.289 l 4.125 -4.375 l 4.233 -4.458 l 4.339 -4.537 l 4.441 -4.613 l 4.54 -4.685 l 4.637 -4.753 l 4.73 -4.817 l 4.819 -4.877 l 4.905 -4.933 l 4.988 -4.985 l 5.067 -5.032 l 5.142 -5.076 l 5.213 -5.116 l 5.281 -5.151 l 5.344 -5.182 l 5.404 -5.208 l 5.46 -5.23 l 5.511 -5.248 l 5.559 -5.261 l 5.602 -5.271 l 5.641 -5.275 l 5.676 -5.275 l 5.707 -5.271 l 5.733 -5.262 l 5.755 -5.249 l 5.772 -5.232 l 5.785 -5.21 l 5.794 -5.184 l 5.798 -5.153 l 5.798 -5.119 l 5.793 -5.08 l 5.784 -5.036 l 5.771 -4.989 l 5.753 -4.937 l 5.731 -4.882 l 5.704 -4.822 l 5.673 -4.758 l 5.638 -4.69 l 5.599 -4.619 l 5.555 -4.544 l 5.507 -4.465 l 5.455 -4.382 l 5.399 -4.296 l 5.339 -4.207 l 5.275 -4.114 l 5.207 -4.018 l 5.136 -3.918 l 5.06 -3.816 l 4.981 -3.711 l 4.898 -3.602 l 4.812 -3.491 l 4.722 -3.378 l 4.629 -3.262 l 4.532 -3.143 l 4.433 -3.022 l 4.33 -2.899 l 4.224 -2.773 l 4.116 -2.646 l 4.005 -2.517 l 3.891 -2.387 l 3.774 -2.254 l 3.656 -2.121 l 3.534 -1.986 l 3.411 -1.849 l 3.286 -1.712 l 3.158 -1.574 l 3.029 -1.435 l 2.898 -1.296 l 2.766 -1.156 l 2.632 -1.015 l 2.497 -0.8747 l 2.361 -0.734 l 2.223 -0.5934 l 2.085 -0.453 l 1.946 -0.313 l 2.112 -1.248 l 1.971 -1.109 l 1.831 -0.9706 l 1.69 -0.8333 l 1.55 -0.6971 l 1.409 -0.5619 l 1.269 -0.4281 l 1.129 -0.2957 l 0.9894 -0.1649 l 0.8505 -0.03571 l 0.7123 0.09163 l 0.5751 0.217 l 0.4389 0.3404 l 0.3039 0.4615 l 0.1702 0.5804 l 0.03794 0.6968 l -0.09277 0.8107 l -0.2218 0.922 l -0.349 1.03 l -0.4742 1.136 l -0.5974 1.239 l -0.7183 1.338 l -0.837 1.435 l -0.9532 1.528 l -1.067 1.618 l -1.178 1.704 l -1.286 1.787 l -1.392 1.866 l -1.494 1.942 l -1.593 2.013 l -1.689 2.081 l -1.782 2.145 l -1.872 2.205 l -1.958 2.261 l -2.04 2.313 l -2.119 2.361 l -2.195 2.405 l -2.266 2.444 l -2.334 2.479 l -2.397 2.51 l -2.457 2.537 l -2.513 2.559 l -2.564 2.577 l -2.612 2.59 l -2.655 2.599 l -2.694 2.604 l -2.729 2.604 l -2.759 2.6 l -2.786 2.591 l -2.807 2.578 l -2.825 2.561 l -2.838 2.539 l -2.847 2.513 l -2.851 2.482 l -2.851 2.447 l -2.846 2.408 l -2.837 2.365 l -2.824 2.317 l -2.806 2.266 l -2.784 2.21 l -2.757 2.15 l -2.726 2.087 l -2.691 2.019 l -2.652 1.948 l -2.608 1.873 l -2.56 1.794 l -2.508 1.711 l -2.452 1.625 l -2.392 1.536 l -2.328 1.443 l -2.26 1.346 l -2.188 1.247 l -2.113 1.145 l -2.034 1.039 l -1.951 0.9311 l -1.865 0.8201 l -1.775 0.7064 l -1.682 0.5902 l -1.585 0.4715 l -1.486 0.3506 l -1.383 0.2274 l -1.277 0.1022 l -1.169 -0.02503 l -1.058 -0.154 l -0.9436 -0.2847 l -0.8272 -0.417 l -0.7084 -0.5507 l -0.5872 -0.6857 l -0.4638 -0.8219 l -0.3384 -0.9592 l -0.2111 -1.097 l -0.08194 -1.236 l 0.0489 -1.376 l 0.1813 -1.516 l 0.3151 -1.656 l 0.4502 -1.797 l 0.5865 -1.937 l 0.7238 -2.078 l 0.862 -2.218 l 1.001 -2.358 l 0.255 -3.093 l 0.395 -3.232 l 0.5354 -3.37 l 0.676 -3.508 l 0.8166 -3.644 l 0.9572 -3.779 l 1.098 -3.913 l 1.238 -4.045 l 1.377 -4.176 l 1.516 -4.305 l 1.654 -4.433 l 1.791 -4.558 l 1.928 -4.681 l 2.063 -4.802 l 2.196 -4.921 l 2.329 -5.038 l 2.459 -5.152 l 2.588 -5.263 l 2.715 -5.371 l 2.841 -5.477 l 2.964 -5.58 l 3.085 -5.679 l 3.203 -5.776 l 3.32 -5.869 l 3.433 -5.959 l 3.544 -6.045 l 3.653 -6.128 l 3.758 -6.207 l 3.86 -6.282 l 3.96 -6.354 l 4.056 -6.422 l 4.149 -6.486 l 4.238 -6.546 l 4.324 -6.602 l 4.407 -6.654 l 4.486 -6.702 l 4.561 -6.746 l 4.632 -6.785 l 4.7 -6.82 l 4.764 -6.851 l 4.823 -6.878 l 4.879 -6.9 l 4.931 -6.918 l 4.978 -6.931 l 5.022 -6.94 l 5.061 -6.945 l 5.095 -6.945 l 5.126 -6.941 l 5.152 -6.932 l 5.174 -6.919 l 5.191 -6.901 l 5.204 -6.88 l 5.213 -6.853 l 5.217 -6.823 l 5.217 -6.788 l 5.212 -6.749 l 5.203 -6.706 l 5.19 -6.658 l 5.172 -6.607 l 5.15 -6.551 l 5.123 -6.491 l 5.093 -6.428 l 5.057 -6.36 l 5.018 -6.289 l 4.974 -6.213 l 4.927 -6.135 l 4.875 -6.052 l 4.819 -5.966 l 4.759 -5.876 l 4.695 -5.784 l 4.627 -5.687 l 4.555 -5.588 l 4.479 -5.486 l 4.4 -5.38 l 4.317 -5.272 l 4.231 -5.161 l 4.141 -5.047 l 4.048 -4.931 l 3.952 -4.812 l 3.852 -4.691 l 3.749 -4.568 l 3.644 -4.443 l 3.535 -4.316 l 3.424 -4.187 l 3.31 -4.056 l 3.194 -3.924 l 3.075 -3.79 l 2.954 -3.655 l 2.83 -3.519 l 2.705 -3.382 l 2.578 -3.244 l 2.448 -3.105 l 2.318 -2.965 l 2.185 -2.825 l 2.051 -2.685 l 1.916 -2.544 l 1.78 -2.404 l 1.643 -2.263 l 1.504 -2.123 l 1.365 -1.983 l 0.5145 -1.451 l 0.3744 -1.312 l 0.234 -1.174 l 0.09346 -1.037 l -0.04719 -0.9003 l -0.1878 -0.7652 l -0.3281 -0.6313 l -0.4681 -0.4989 l -0.6077 -0.3681 l -0.7466 -0.2389 l -0.8847 -0.1116 l -1.022 0.0138 l -1.158 0.1371 l -1.293 0.2583 l -1.427 0.3772 l -1.559 0.4936 l -1.69 0.6075 l -1.819 0.7187 l -1.946 0.8272 l -2.071 0.9329 l -2.194 1.036 l -2.315 1.135 l -2.434 1.232 l -2.55 1.325 l -2.664 1.414 l -2.775 1.501 l -2.883 1.584 l -2.989 1.663 l -3.091 1.738 l -3.19 1.81 l -3.286 1.878 l -3.379 1.942 l -3.469 2.002 l -3.555 2.058 l -3.637 2.11 l -3.716 2.158 l -3.792 2.202 l -3.863 2.241 l -3.931 2.276 l -3.994 2.307 l -4.054 2.334 l -4.11 2.356 l -4.161 2.374 l -4.209 2.387 l -4.252 2.396 l -4.291 2.401 l -4.326 2.401 l -4.356 2.397 l -4.383 2.388 l -4.404 2.375 l -4.422 2.357 l -4.435 2.336 l -4.444 2.309 l -4.448 2.279 l -4.448 2.244 l -4.443 2.205 l -4.434 2.162 l -4.421 2.114 l -4.403 2.063 l -4.381 2.007 l -4.354 1.947 l -4.323 1.884 l -4.288 1.816 l -4.249 1.744 l -4.205 1.669 l -4.157 1.59 l -4.105 1.508 l -4.049 1.422 l -3.989 1.332 l -3.925 1.239 l -3.857 1.143 l -3.785 1.044 l -3.71 0.9415 l -3.631 0.8361 l -3.548 0.7279 l -3.462 0.6169 l -3.372 0.5032 l -3.279 0.387 l -3.182 0.2683 l -3.083 0.1473 l -2.98 0.02416 l -2.874 -0.1011 l -2.766 -0.2283 l -2.655 -0.3573 l -2.541 -0.488 l -2.424 -0.6203 l -2.305 -0.754 l -2.184 -0.889 l -2.061 -1.025 l -1.935 -1.162 l -1.808 -1.301 l -1.679 -1.439 l -1.548 -1.579 l -1.416 -1.719 l -1.282 -1.859 l -1.147 -2.0 l -1.011 -2.141 l -0.8732 -2.281 l -0.735 -2.422 l -0.5961 -2.562 l -1.24 -3.456 l -1.1 -3.595 l -0.96 -3.733 l -0.8194 -3.871 l -0.6788 -4.007 l -0.5382 -4.142 l -0.3978 -4.276 l -0.2578 -4.408 l -0.1183 -4.539 l 0.02061 -4.668 l 0.1587 -4.795 l 0.296 -4.921 l 0.4321 -5.044 l 0.5672 -5.165 l 0.7009 -5.284 l 0.8331 -5.401 l 0.9639 -5.515 l 1.093 -5.626 l 1.22 -5.734 l 1.345 -5.84 l 1.468 -5.943 l 1.589 -6.042 l 1.708 -6.139 l 1.824 -6.232 l 1.938 -6.322 l 2.049 -6.408 l 2.157 -6.491 l 2.263 -6.57 l 2.365 -6.645 l 2.464 -6.717 l 2.561 -6.785 l 2.653 -6.849 l 2.743 -6.909 l 2.829 -6.965 l 2.912 -7.017 l 2.99 -7.065 l 3.066 -7.109 l 3.137 -7.148 l 3.205 -7.183 l 3.268 -7.214 l 3.328 -7.241 l 3.384 -7.263 l 3.435 -7.281 l 3.483 -7.294 l 3.526 -7.303 l 3.565 -7.308 l 3.6 -7.308 l 3.63 -7.304 l 3.657 -7.295 l 3.678 -7.282 l 3.696 -7.264 l 3.709 -7.243 l 3.718 -7.216 l 3.722 -7.186 l 3.722 -7.151 l 3.717 -7.112 l 3.708 -7.069 l 3.695 -7.021 l 3.677 -6.97 l 3.655 -6.914 l 3.628 -6.854 l 3.597 -6.791 l 3.562 -6.723 l 3.523 -6.652 l 3.479 -6.576 l 3.431 -6.497 l 3.379 -6.415 l 3.323 -6.329 l 3.263 -6.239 l 3.199 -6.146 l 3.131 -6.05 l 3.059 -5.951 l 2.984 -5.849 l 2.905 -5.743 l 2.822 -5.635 l 2.736 -5.524 l 2.646 -5.41 l 2.553 -5.294 l 2.456 -5.175 l 2.357 -5.054 l 2.254 -4.931 l 2.148 -4.806 l 2.04 -4.679 l 1.929 -4.55 l 1.815 -4.419 l 1.698 -4.287 l 1.579 -4.153 l 1.458 -4.018 l 1.335 -3.882 l 1.21 -3.745 l 1.082 -3.607 l 0.953 -3.468 l 0.8222 -3.328 l 0.6898 -3.188 l 0.556 -3.048 l 0.4208 -2.907 l 0.2846 -2.767 l 0.1473 -2.626 l 0.009061 -2.486 l -0.1299 -2.346 l -0.9808 -1.422 l -1.121 -1.283 l -1.261 -1.145 l -1.402 -1.008 l -1.542 -0.8713 l -1.683 -0.7361 l -1.823 -0.6023 l -1.963 -0.4699 l -2.103 -0.3391 l -2.242 -0.2099 l -2.38 -0.08258 l -2.517 0.04283 l -2.653 0.1662 l -2.788 0.2873 l -2.922 0.4062 l -3.054 0.5226 l -3.185 0.6365 l -3.314 0.7478 l -3.441 0.8563 l -3.567 0.9619 l -3.69 1.065 l -3.811 1.164 l -3.929 1.261 l -4.046 1.354 l -4.159 1.443 l -4.27 1.53 l -4.379 1.613 l -4.484 1.692 l -4.586 1.767 l -4.686 1.839 l -4.782 1.907 l -4.875 1.971 l -4.964 2.031 l -5.05 2.087 l -5.133 2.139 l -5.212 2.187 l -5.287 2.231 l -5.358 2.27 l -5.426 2.305 l -5.49 2.336 l -5.549 2.363 l -5.605 2.385 l -5.657 2.403 l -5.704 2.416 l -5.747 2.425 l -5.786 2.43 l -5.821 2.43 l -5.852 2.426 l -5.878 2.417 l -5.9 2.404 l -5.917 2.386 l -5.93 2.365 l -5.939 2.338 l -5.943 2.308 l -5.943 2.273 l -5.938 2.234 l -5.929 2.191 l -5.916 2.143 l -5.898 2.092 l -5.876 2.036 l -5.849 1.976 l -5.818 1.913 l -5.783 1.845 l -5.744 1.774 l -5.7 1.698 l -5.652 1.619 l -5.601 1.537 l -5.544 1.451 l -5.484 1.361 l -5.42 1.268 l -5.352 1.172 l -5.281 1.073 l -5.205 0.9706 l -5.126 0.8652 l -5.043 0.7569 l -4.957 0.6459 l -4.867 0.5322 l -4.774 0.416 l -4.677 0.2973 l -4.578 0.1764 l -4.475 0.05319 l -4.37 -0.07205 l -4.261 -0.1992 l -4.15 -0.3282 l -4.036 -0.459 l -3.92 -0.5912 l -3.801 -0.7249 l -3.68 -0.86 l -3.556 -0.9961 l -3.431 -1.133 l -3.303 -1.271 l -3.174 -1.41 l -3.043 -1.55 l -2.911 -1.69 l -2.777 -1.83 l -2.642 -1.971 l -2.506 -2.112 l -2.368 -2.252 l -2.23 -2.392 l -2.091 -2.533 l -4.587 -4.618 l -4.447 -4.756 l -4.306 -4.895 l -4.166 -5.032 l -4.025 -5.168 l -3.885 -5.303 l -3.744 -5.437 l -3.604 -5.57 l -3.465 -5.7 l -3.326 -5.83 l -3.188 -5.957 l -3.05 -6.082 l -2.914 -6.206 l -2.779 -6.327 l -2.646 -6.446 l -2.513 -6.562 l -2.383 -6.676 l -2.254 -6.787 l -2.126 -6.896 l -2.001 -7.001 l -1.878 -7.104 l -1.757 -7.204 l -1.638 -7.3 l -1.522 -7.393 l -1.408 -7.483 l -1.297 -7.569 l -1.189 -7.652 l -1.084 -7.731 l -0.9813 -7.807 l -0.882 -7.879 l -0.7859 -7.947 l -0.693 -8.011 l -0.6035 -8.071 l -0.5174 -8.127 l -0.4349 -8.179 l -0.356 -8.226 l -0.2808 -8.27 l -0.2093 -8.309 l -0.1417 -8.345 l -0.07803 -8.376 l -0.01831 -8.402 l 0.03738 -8.424 l 0.08898 -8.442 l 0.1365 -8.455 l 0.1797 -8.464 l 0.2188 -8.469 l 0.2536 -8.469 l 0.2841 -8.465 l 0.3103 -8.456 l 0.3321 -8.443 l 0.3496 -8.426 l 0.3626 -8.404 l 0.3713 -8.378 l 0.3755 -8.347 l 0.3753 -8.313 l 0.3707 -8.274 l 0.3617 -8.23 l 0.3483 -8.183 l 0.3305 -8.131 l 0.3083 -8.075 l 0.2817 -8.016 l 0.2509 -7.952 l 0.2157 -7.884 l 0.1763 -7.813 l 0.1327 -7.738 l 0.08484 -7.659 l 0.03289 -7.576 l -0.02314 -7.49 l -0.08319 -7.401 l -0.1472 -7.308 l -0.2151 -7.212 l -0.2869 -7.112 l -0.3624 -7.01 l -0.4416 -6.905 l -0.5244 -6.796 l -0.6108 -6.685 l -0.7006 -6.572 l -0.7937 -6.455 l -0.8902 -6.337 l -0.9897 -6.216 l -1.092 -6.093 l -1.198 -5.967 l -1.307 -5.84 l -1.418 -5.711 l -1.532 -5.581 l -1.648 -5.448 l -1.767 -5.315 l -1.888 -5.18 l -2.011 -5.043 l -2.137 -4.906 l -2.264 -4.768 l -2.393 -4.629 l -2.524 -4.49 l -2.657 -4.35 l -2.79 -4.209 l -2.926 -4.069 l -3.062 -3.928 l -3.199 -3.787 l -3.337 -3.647 l -3.476 -3.507 l -3.616 -3.367 l -3.756 -3.228 l -3.896 -3.09 l -4.037 -2.953 l -4.178 -2.817 l -4.318 -2.682 l -4.458 -2.548 l -4.598 -2.415 l -4.738 -2.284 l -4.877 -2.155 l -5.015 -2.028 l -5.152 -1.903 l -5.288 -1.779 l -5.423 -1.658 l -5.557 -1.539 l -5.689 -1.423 l -5.82 -1.309 l -5.949 -1.198 l -6.076 -1.089 l -6.202 -0.9835 l -6.325 -0.8809 l -6.446 -0.7813 l -6.564 -0.6849 l -6.681 -0.5917 l -6.794 -0.5019 l -6.905 -0.4156 l -7.014 -0.3327 l -7.119 -0.2535 l -7.221 -0.178 l -7.321 -0.1063 l -7.417 -0.03833 l -7.51 0.02568 l -7.599 0.08574 l -7.685 0.1418 l -7.768 0.1937 l -7.847 0.2415 l -7.922 0.2852 l -7.993 0.3246 l -8.061 0.3597 l -8.125 0.3906 l -8.184 0.4171 l -8.24 0.4393 l -8.292 0.4571 l -8.339 0.4706 l -8.382 0.4796 l -8.421 0.4842 l -8.456 0.4844 l -8.487 0.4801 l -8.513 0.4715 l -8.535 0.4584 l -8.552 0.441 l -8.565 0.4192 l -8.574 0.393 l -8.578 0.3625 l -8.578 0.3277 l -8.573 0.2886 l -8.564 0.2453 l -8.551 0.1979 l -8.533 0.1463 l -8.511 0.09056 l -8.484 0.03084 l -8.454 -0.03285 l -8.418 -0.1004 l -8.379 -0.1719 l -8.335 -0.2471 l -8.287 -0.326 l -8.236 -0.4085 l -8.18 -0.4946 l -8.119 -0.5841 l -8.055 -0.677 l -7.988 -0.7731 l -7.916 -0.8725 l -7.84 -0.9749 l -7.761 -1.08 l -7.678 -1.188 l -7.592 -1.3 l -7.502 -1.413 l -7.409 -1.529 l -7.312 -1.648 l -7.213 -1.769 l -7.11 -1.892 l -7.005 -2.017 l -6.896 -2.145 l -6.785 -2.274 l -6.671 -2.404 l -6.555 -2.537 l -6.436 -2.67 l -6.315 -2.805 l -6.191 -2.942 l -6.066 -3.079 l -5.938 -3.217 l -5.809 -3.356 l -5.678 -3.495 l -5.546 -3.635 l -5.412 -3.776 l -5.277 -3.916 l -5.141 -4.057 l -5.004 -4.198 l -4.865 -4.338 l -4.726 -4.478 l -4.587 3.367 l -4.447 3.228 l -4.306 3.09 l -4.166 2.953 l -4.025 2.817 l -3.885 2.682 l -3.744 2.548 l -3.604 2.415 l -3.465 2.284 l -3.326 2.155 l -3.188 2.028 l -3.05 1.903 l -2.914 1.779 l -2.779 1.658 l -2.646 1.539 l -2.513 1.423 l -2.383 1.309 l -2.254 1.198 l -2.126 1.089 l -2.001 0.9835 l -1.878 0.8809 l -1.757 0.7813 l -1.638 0.6849 l -1.522 0.5917 l -1.408 0.5019 l -1.297 0.4156 l -1.189 0.3327 l -1.084 0.2535 l -0.9813 0.178 l -0.882 0.1063 l -0.7859 0.03833 l -0.693 -0.02568 l -0.6035 -0.08574 l -0.5174 -0.1418 l -0.4349 -0.1937 l -0.356 -0.2415 l -0.2808 -0.2852 l -0.2093 -0.3246 l -0.1417 -0.3597 l -0.07805 -0.3906 l -0.01833 -0.4171 l 0.03736 -0.4393 l 0.08896 -0.4571 l 0.1364 -0.4706 l 0.1797 -0.4796 l 0.2188 -0.4842 l 0.2536 -0.4844 l 0.2841 -0.4801 l 0.3103 -0.4715 l 0.3321 -0.4584 l 0.3495 -0.441 l 0.3626 -0.4192 l 0.3712 -0.393 l 0.3755 -0.3625 l 0.3753 -0.3277 l 0.3707 -0.2886 l 0.3617 -0.2453 l 0.3482 -0.1979 l 0.3304 -0.1463 l 0.3082 -0.09056 l 0.2817 -0.03084 l 0.2509 0.03285 l 0.2157 0.1004 l 0.1763 0.1719 l 0.1326 0.2471 l 0.08482 0.326 l 0.03287 0.4085 l -0.02316 0.4946 l -0.08321 0.5841 l -0.1472 0.677 l -0.2151 0.7731 l -0.2869 0.8725 l -0.3624 0.9749 l -0.4416 1.08 l -0.5245 1.188 l -0.6108 1.3 l -0.7006 1.413 l -0.7938 1.529 l -0.8902 1.648 l -0.9898 1.769 l -1.092 1.892 l -1.198 2.017 l -1.307 2.145 l -1.418 2.274 l -1.532 2.404 l -1.648 2.537 l -1.767 2.67 l -1.888 2.805 l -2.011 2.942 l -2.137 3.079 l -2.264 3.217 l -2.393 3.356 l -2.524 3.495 l -2.657 3.635 l -2.79 3.776 l -2.926 3.916 l -3.062 4.057 l -3.199 4.198 l -3.337 4.338 l -3.476 4.478 l -3.616 4.618 l -3.756 4.756 l -3.896 4.895 l -4.037 5.032 l -4.178 5.168 l -4.318 5.303 l -4.458 5.437 l -4.598 5.57 l -4.738 5.7 l -4.877 5.83 l -5.015 5.957 l -5.152 6.082 l -5.288 6.206 l -5.423 6.327 l -5.557 6.446 l -5.689 6.562 l -5.82 6.676 l -5.949 6.787 l -6.076 6.896 l -6.202 7.001 l -6.325 7.104 l -6.446 7.204 l -6.564 7.3 l -6.681 7.393 l -6.794 7.483 l -6.905 7.569 l -7.014 7.652 l -7.119 7.731 l -7.221 7.807 l -7.321 7.879 l -7.417 7.947 l -7.51 8.011 l -7.599 8.071 l -7.685 8.127 l -7.768 8.179 l -7.847 8.226 l -7.922 8.27 l -7.993 8.309 l -8.061 8.345 l -8.125 8.376 l -8.184 8.402 l -8.24 8.424 l -8.292 8.442 l -8.339 8.455 l -8.382 8.464 l -8.421 8.469 l -8.456 8.469 l -8.487 8.465 l -8.513 8.456 l -8.535 8.443 l -8.552 8.426 l -8.565 8.404 l -8.574 8.378 l -8.578 8.347 l -8.578 8.313 l -8.573 8.274 l -8.564 8.23 l -8.551 8.183 l -8.533 8.131 l -8.511 8.075 l -8.484 8.016 l -8.454 7.952 l -8.418 7.884 l -8.379 7.813 l -8.335 7.738 l -8.288 7.659 l -8.236 7.576 l -8.18 7.49 l -8.119 7.401 l -8.055 7.308 l -7.988 7.212 l -7.916 7.112 l -7.84 7.01 l -7.761 6.905 l -7.678 6.796 l -7.592 6.685 l -7.502 6.572 l -7.409 6.455 l -7.313 6.337 l -7.213 6.216 l -7.11 6.093 l -7.005 5.967 l -6.896 5.84 l -6.785 5.711 l -6.671 5.581 l -6.555 5.448 l -6.436 5.315 l -6.315 5.18 l -6.191 5.043 l -6.066 4.906 l -5.938 4.768 l -5.809 4.629 l -5.678 4.49 l -5.546 4.35 l -5.412 4.209 l -5.277 4.069 l -5.141 3.928 l -5.004 3.787 l -4.865 3.647 l -4.726 3.507 l -1.952 1.422 l -1.812 1.283 l -1.671 1.145 l -1.531 1.008 l -1.39 0.8713 l -1.25 0.7361 l -1.109 0.6023 l -0.9692 0.4699 l -0.8297 0.3391 l -0.6908 0.2099 l -0.5527 0.08258 l -0.4154 -0.04283 l -0.2793 -0.1662 l -0.1442 -0.2873 l -0.01053 -0.4062 l 0.1217 -0.5226 l 0.2525 -0.6365 l 0.3815 -0.7478 l 0.5086 -0.8563 l 0.6339 -0.9619 l 0.7571 -1.065 l 0.878 -1.164 l 0.9967 -1.261 l 1.113 -1.354 l 1.227 -1.443 l 1.338 -1.53 l 1.446 -1.613 l 1.551 -1.692 l 1.654 -1.767 l 1.753 -1.839 l 1.849 -1.907 l 1.942 -1.971 l 2.032 -2.031 l 2.118 -2.087 l 2.2 -2.139 l 2.279 -2.187 l 2.354 -2.231 l 2.426 -2.27 l 2.493 -2.305 l 2.557 -2.336 l 2.617 -2.363 l 2.672 -2.385 l 2.724 -2.403 l 2.771 -2.416 l 2.815 -2.425 l 2.854 -2.43 l 2.889 -2.43 l 2.919 -2.426 l 2.945 -2.417 l 2.967 -2.404 l 2.985 -2.386 l 2.998 -2.365 l 3.006 -2.338 l 3.01 -2.308 l 3.01 -2.273 l 3.006 -2.234 l 2.997 -2.191 l 2.983 -2.143 l 2.965 -2.092 l 2.943 -2.036 l 2.917 -1.976 l 2.886 -1.913 l 2.851 -1.845 l 2.811 -1.774 l 2.768 -1.698 l 2.72 -1.619 l 2.668 -1.537 l 2.612 -1.451 l 2.552 -1.361 l 2.488 -1.268 l 2.42 -1.172 l 2.348 -1.073 l 2.273 -0.9706 l 2.193 -0.8652 l 2.111 -0.7569 l 2.024 -0.6459 l 1.934 -0.5322 l 1.841 -0.416 l 1.745 -0.2973 l 1.645 -0.1764 l 1.543 -0.05319 l 1.437 0.07205 l 1.328 0.1992 l 1.217 0.3282 l 1.103 0.459 l 0.9869 0.5912 l 0.868 0.7249 l 0.7469 0.86 l 0.6235 0.9961 l 0.4981 1.133 l 0.3708 1.271 l 0.2416 1.41 l 0.1108 1.55 l -0.02162 1.69 l -0.1554 1.83 l -0.2906 1.971 l -0.4268 2.112 l -0.5641 2.252 l -0.7023 2.392 l -0.8413 2.533 l -0.2695 3.456 l -0.4095 3.595 l -0.5499 3.733 l -0.6905 3.871 l -0.8311 4.007 l -0.9717 4.142 l -1.112 4.276 l -1.252 4.408 l -1.392 4.539 l -1.53 4.668 l -1.669 4.795 l -1.806 4.921 l -1.942 5.044 l -2.077 5.165 l -2.211 5.284 l -2.343 5.401 l -2.474 5.515 l -2.603 5.626 l -2.73 5.734 l -2.855 5.84 l -2.978 5.943 l -3.099 6.042 l -3.218 6.139 l -3.334 6.232 l -3.448 6.322 l -3.559 6.408 l -3.667 6.491 l -3.773 6.57 l -3.875 6.645 l -3.974 6.717 l -4.07 6.785 l -4.163 6.849 l -4.253 6.909 l -4.339 6.965 l -4.421 7.017 l -4.5 7.065 l -4.576 7.109 l -4.647 7.148 l -4.715 7.183 l -4.778 7.214 l -4.838 7.241 l -4.894 7.263 l -4.945 7.281 l -4.993 7.294 l -5.036 7.303 l -5.075 7.308 l -5.11 7.308 l -5.14 7.304 l -5.167 7.295 l -5.188 7.282 l -5.206 7.264 l -5.219 7.243 l -5.228 7.216 l -5.232 7.186 l -5.232 7.151 l -5.227 7.112 l -5.218 7.069 l -5.205 7.021 l -5.187 6.97 l -5.165 6.914 l -5.138 6.854 l -5.107 6.791 l -5.072 6.723 l -5.033 6.652 l -4.989 6.576 l -4.941 6.497 l -4.889 6.415 l -4.833 6.329 l -4.773 6.239 l -4.709 6.146 l -4.641 6.05 l -4.569 5.951 l -4.494 5.849 l -4.415 5.743 l -4.332 5.635 l -4.245 5.524 l -4.156 5.41 l -4.063 5.294 l -3.966 5.175 l -3.867 5.054 l -3.764 4.931 l -3.658 4.806 l -3.55 4.679 l -3.438 4.55 l -3.325 4.419 l -3.208 4.287 l -3.089 4.153 l -2.968 4.018 l -2.845 3.882 l -2.719 3.745 l -2.592 3.607 l -2.463 3.468 l -2.332 3.328 l -2.2 3.188 l -2.066 3.048 l -1.931 2.907 l -1.794 2.767 l -1.657 2.626 l -1.519 2.486 l -1.38 2.346" style="stroke:#0000ff;fill:none;stroke-width:5;stroke-miterlimit:4;stroke-dasharray:none" /></svg>